<svg xmlns="http://www.w3.org/2000/svg" xmlns:xlink="http://www.w3.org/1999/xlink" width="1406" height="2822" viewBox="0 0 1406 2822"><defs><filter id="f" width="122.2%" height="114.3%" x="-11.1%" y="-7.1%" filterUnits="objectBoundingBox"><feGaussianBlur in="SourceAlpha" result="shadowBlurInner1" stdDeviation="1"/><feOffset dy="-2" in="shadowBlurInner1" result="shadowOffsetInner1"/><feComposite in="shadowOffsetInner1" in2="SourceAlpha" k2="-1" k3="1" operator="arithmetic" result="shadowInnerInner1"/><feColorMatrix in="shadowInnerInner1" result="shadowMatrixInner1" values="0 0 0 0 1 0 0 0 0 1 0 0 0 0 1 0 0 0 0.25 0"/><feGaussianBlur in="SourceAlpha" result="shadowBlurInner2" stdDeviation="1"/><feOffset dy="2" in="shadowBlurInner2" result="shadowOffsetInner2"/><feComposite in="shadowOffsetInner2" in2="SourceAlpha" k2="-1" k3="1" operator="arithmetic" result="shadowInnerInner2"/><feColorMatrix in="shadowInnerInner2" result="shadowMatrixInner2" values="0 0 0 0 1 0 0 0 0 1 0 0 0 0 1 0 0 0 0.25 0"/><feMerge><feMergeNode in="shadowMatrixInner1"/><feMergeNode in="shadowMatrixInner2"/></feMerge></filter><filter id="i" width="122.2%" height="114.3%" x="-11.1%" y="-7.1%" filterUnits="objectBoundingBox"><feGaussianBlur in="SourceAlpha" result="shadowBlurInner1" stdDeviation="1"/><feOffset dy="-2" in="shadowBlurInner1" result="shadowOffsetInner1"/><feComposite in="shadowOffsetInner1" in2="SourceAlpha" k2="-1" k3="1" operator="arithmetic" result="shadowInnerInner1"/><feColorMatrix in="shadowInnerInner1" result="shadowMatrixInner1" values="0 0 0 0 1 0 0 0 0 1 0 0 0 0 1 0 0 0 0.25 0"/><feGaussianBlur in="SourceAlpha" result="shadowBlurInner2" stdDeviation="1"/><feOffset dy="2" in="shadowBlurInner2" result="shadowOffsetInner2"/><feComposite in="shadowOffsetInner2" in2="SourceAlpha" k2="-1" k3="1" operator="arithmetic" result="shadowInnerInner2"/><feColorMatrix in="shadowInnerInner2" result="shadowMatrixInner2" values="0 0 0 0 1 0 0 0 0 1 0 0 0 0 1 0 0 0 0.25 0"/><feMerge><feMergeNode in="shadowMatrixInner1"/><feMergeNode in="shadowMatrixInner2"/></feMerge></filter><filter id="k" width="122.2%" height="114.3%" x="-11.1%" y="-7.1%" filterUnits="objectBoundingBox"><feGaussianBlur in="SourceAlpha" result="shadowBlurInner1" stdDeviation="1"/><feOffset dy="-2" in="shadowBlurInner1" result="shadowOffsetInner1"/><feComposite in="shadowOffsetInner1" in2="SourceAlpha" k2="-1" k3="1" operator="arithmetic" result="shadowInnerInner1"/><feColorMatrix in="shadowInnerInner1" result="shadowMatrixInner1" values="0 0 0 0 1 0 0 0 0 1 0 0 0 0 1 0 0 0 0.25 0"/><feGaussianBlur in="SourceAlpha" result="shadowBlurInner2" stdDeviation="1"/><feOffset dy="2" in="shadowBlurInner2" result="shadowOffsetInner2"/><feComposite in="shadowOffsetInner2" in2="SourceAlpha" k2="-1" k3="1" operator="arithmetic" result="shadowInnerInner2"/><feColorMatrix in="shadowInnerInner2" result="shadowMatrixInner2" values="0 0 0 0 1 0 0 0 0 1 0 0 0 0 1 0 0 0 0.25 0"/><feMerge><feMergeNode in="shadowMatrixInner1"/><feMergeNode in="shadowMatrixInner2"/></feMerge></filter><filter id="m" width="122.2%" height="114.3%" x="-11.1%" y="-7.1%" filterUnits="objectBoundingBox"><feGaussianBlur in="SourceAlpha" result="shadowBlurInner1" stdDeviation="1"/><feOffset dy="-2" in="shadowBlurInner1" result="shadowOffsetInner1"/><feComposite in="shadowOffsetInner1" in2="SourceAlpha" k2="-1" k3="1" operator="arithmetic" result="shadowInnerInner1"/><feColorMatrix in="shadowInnerInner1" result="shadowMatrixInner1" values="0 0 0 0 1 0 0 0 0 1 0 0 0 0 1 0 0 0 0.25 0"/><feGaussianBlur in="SourceAlpha" result="shadowBlurInner2" stdDeviation="1"/><feOffset dy="2" in="shadowBlurInner2" result="shadowOffsetInner2"/><feComposite in="shadowOffsetInner2" in2="SourceAlpha" k2="-1" k3="1" operator="arithmetic" result="shadowInnerInner2"/><feColorMatrix in="shadowInnerInner2" result="shadowMatrixInner2" values="0 0 0 0 1 0 0 0 0 1 0 0 0 0 1 0 0 0 0.25 0"/><feMerge><feMergeNode in="shadowMatrixInner1"/><feMergeNode in="shadowMatrixInner2"/></feMerge></filter><filter id="o" width="380%" height="114%" x="-140%" y="-7%" filterUnits="objectBoundingBox"><feGaussianBlur in="SourceAlpha" result="shadowBlurInner1" stdDeviation="4"/><feOffset dy="-20" in="shadowBlurInner1" result="shadowOffsetInner1"/><feComposite in="shadowOffsetInner1" in2="SourceAlpha" k2="-1" k3="1" operator="arithmetic" result="shadowInnerInner1"/><feColorMatrix in="shadowInnerInner1" result="shadowMatrixInner1" values="0 0 0 0 0.796078431 0 0 0 0 0.352941176 0 0 0 0 0.17254902 0 0 0 0.77381993 0"/><feGaussianBlur in="SourceAlpha" result="shadowBlurInner2" stdDeviation="3"/><feOffset dy="-9" in="shadowBlurInner2" result="shadowOffsetInner2"/><feComposite in="shadowOffsetInner2" in2="SourceAlpha" k2="-1" k3="1" operator="arithmetic" result="shadowInnerInner2"/><feColorMatrix in="shadowInnerInner2" result="shadowMatrixInner2" values="0 0 0 0 1 0 0 0 0 0.786862222 0 0 0 0 0.633079268 0 0 0 0.4 0"/><feGaussianBlur in="SourceAlpha" result="shadowBlurInner3" stdDeviation="1"/><feOffset dx="4" in="shadowBlurInner3" result="shadowOffsetInner3"/><feComposite in="shadowOffsetInner3" in2="SourceAlpha" k2="-1" k3="1" operator="arithmetic" result="shadowInnerInner3"/><feColorMatrix in="shadowInnerInner3" result="shadowMatrixInner3" values="0 0 0 0 0.749207428 0 0 0 0 0.239019124 0 0 0 0 0.0311646306 0 0 0 0.713914991 0"/><feMorphology in="SourceAlpha" operator="dilate" radius="6" result="shadowSpreadInner4"/><feGaussianBlur in="shadowSpreadInner4" result="shadowBlurInner4" stdDeviation="4"/><feOffset dy="24" in="shadowBlurInner4" result="shadowOffsetInner4"/><feComposite in="shadowOffsetInner4" in2="SourceAlpha" k2="-1" k3="1" operator="arithmetic" result="shadowInnerInner4"/><feColorMatrix in="shadowInnerInner4" result="shadowMatrixInner4" values="0 0 0 0 1 0 0 0 0 0.882352941 0 0 0 0 0.733333333 0 0 0 0.9 0"/><feMorphology in="SourceAlpha" operator="dilate" radius="2" result="shadowSpreadInner5"/><feGaussianBlur in="shadowSpreadInner5" result="shadowBlurInner5" stdDeviation="2"/><feOffset dy="8" in="shadowBlurInner5" result="shadowOffsetInner5"/><feComposite in="shadowOffsetInner5" in2="SourceAlpha" k2="-1" k3="1" operator="arithmetic" result="shadowInnerInner5"/><feColorMatrix in="shadowInnerInner5" result="shadowMatrixInner5" values="0 0 0 0 0.788235294 0 0 0 0 0.376470588 0 0 0 0 0.164705882 0 0 0 1 0"/><feGaussianBlur in="SourceAlpha" result="shadowBlurInner6" stdDeviation="1"/><feOffset dy="-2" in="shadowBlurInner6" result="shadowOffsetInner6"/><feComposite in="shadowOffsetInner6" in2="SourceAlpha" k2="-1" k3="1" operator="arithmetic" result="shadowInnerInner6"/><feColorMatrix in="shadowInnerInner6" result="shadowMatrixInner6" values="0 0 0 0 0.488394475 0 0 0 0 0.163845752 0 0 0 0 0.0315297348 0 0 0 0.8 0"/><feGaussianBlur in="SourceAlpha" result="shadowBlurInner7" stdDeviation="1"/><feOffset dx="-2" in="shadowBlurInner7" result="shadowOffsetInner7"/><feComposite in="shadowOffsetInner7" in2="SourceAlpha" k2="-1" k3="1" operator="arithmetic" result="shadowInnerInner7"/><feColorMatrix in="shadowInnerInner7" result="shadowMatrixInner7" values="0 0 0 0 0.988235294 0 0 0 0 0.729411765 0 0 0 0 0.529411765 0 0 0 1 0"/><feGaussianBlur in="SourceAlpha" result="shadowBlurInner8" stdDeviation="1"/><feOffset dx="-1" in="shadowBlurInner8" result="shadowOffsetInner8"/><feComposite in="shadowOffsetInner8" in2="SourceAlpha" k2="-1" k3="1" operator="arithmetic" result="shadowInnerInner8"/><feColorMatrix in="shadowInnerInner8" result="shadowMatrixInner8" values="0 0 0 0 0.723986639 0 0 0 0 0.723986639 0 0 0 0 0.723986639 0 0 0 0.25 0"/><feMerge><feMergeNode in="shadowMatrixInner1"/><feMergeNode in="shadowMatrixInner2"/><feMergeNode in="shadowMatrixInner3"/><feMergeNode in="shadowMatrixInner4"/><feMergeNode in="shadowMatrixInner5"/><feMergeNode in="shadowMatrixInner6"/><feMergeNode in="shadowMatrixInner7"/><feMergeNode in="shadowMatrixInner8"/></feMerge></filter><filter id="q" width="380%" height="114%" x="-140%" y="-7%" filterUnits="objectBoundingBox"><feGaussianBlur in="SourceAlpha" result="shadowBlurInner1" stdDeviation="4"/><feOffset dy="-20" in="shadowBlurInner1" result="shadowOffsetInner1"/><feComposite in="shadowOffsetInner1" in2="SourceAlpha" k2="-1" k3="1" operator="arithmetic" result="shadowInnerInner1"/><feColorMatrix in="shadowInnerInner1" result="shadowMatrixInner1" values="0 0 0 0 0.796078431 0 0 0 0 0.352941176 0 0 0 0 0.17254902 0 0 0 0.77381993 0"/><feGaussianBlur in="SourceAlpha" result="shadowBlurInner2" stdDeviation="3"/><feOffset dy="-9" in="shadowBlurInner2" result="shadowOffsetInner2"/><feComposite in="shadowOffsetInner2" in2="SourceAlpha" k2="-1" k3="1" operator="arithmetic" result="shadowInnerInner2"/><feColorMatrix in="shadowInnerInner2" result="shadowMatrixInner2" values="0 0 0 0 1 0 0 0 0 0.786862222 0 0 0 0 0.633079268 0 0 0 0.4 0"/><feGaussianBlur in="SourceAlpha" result="shadowBlurInner3" stdDeviation="1"/><feOffset dx="4" in="shadowBlurInner3" result="shadowOffsetInner3"/><feComposite in="shadowOffsetInner3" in2="SourceAlpha" k2="-1" k3="1" operator="arithmetic" result="shadowInnerInner3"/><feColorMatrix in="shadowInnerInner3" result="shadowMatrixInner3" values="0 0 0 0 0.749207428 0 0 0 0 0.239019124 0 0 0 0 0.0311646306 0 0 0 0.713914991 0"/><feMorphology in="SourceAlpha" operator="dilate" radius="6" result="shadowSpreadInner4"/><feGaussianBlur in="shadowSpreadInner4" result="shadowBlurInner4" stdDeviation="4"/><feOffset dy="24" in="shadowBlurInner4" result="shadowOffsetInner4"/><feComposite in="shadowOffsetInner4" in2="SourceAlpha" k2="-1" k3="1" operator="arithmetic" result="shadowInnerInner4"/><feColorMatrix in="shadowInnerInner4" result="shadowMatrixInner4" values="0 0 0 0 1 0 0 0 0 0.882352941 0 0 0 0 0.733333333 0 0 0 0.9 0"/><feMorphology in="SourceAlpha" operator="dilate" radius="2" result="shadowSpreadInner5"/><feGaussianBlur in="shadowSpreadInner5" result="shadowBlurInner5" stdDeviation="2"/><feOffset dy="8" in="shadowBlurInner5" result="shadowOffsetInner5"/><feComposite in="shadowOffsetInner5" in2="SourceAlpha" k2="-1" k3="1" operator="arithmetic" result="shadowInnerInner5"/><feColorMatrix in="shadowInnerInner5" result="shadowMatrixInner5" values="0 0 0 0 0.788235294 0 0 0 0 0.376470588 0 0 0 0 0.164705882 0 0 0 1 0"/><feGaussianBlur in="SourceAlpha" result="shadowBlurInner6" stdDeviation="1"/><feOffset dy="-2" in="shadowBlurInner6" result="shadowOffsetInner6"/><feComposite in="shadowOffsetInner6" in2="SourceAlpha" k2="-1" k3="1" operator="arithmetic" result="shadowInnerInner6"/><feColorMatrix in="shadowInnerInner6" result="shadowMatrixInner6" values="0 0 0 0 0.488394475 0 0 0 0 0.163845752 0 0 0 0 0.0315297348 0 0 0 0.8 0"/><feGaussianBlur in="SourceAlpha" result="shadowBlurInner7" stdDeviation="1"/><feOffset dx="-2" in="shadowBlurInner7" result="shadowOffsetInner7"/><feComposite in="shadowOffsetInner7" in2="SourceAlpha" k2="-1" k3="1" operator="arithmetic" result="shadowInnerInner7"/><feColorMatrix in="shadowInnerInner7" result="shadowMatrixInner7" values="0 0 0 0 0.988235294 0 0 0 0 0.729411765 0 0 0 0 0.529411765 0 0 0 1 0"/><feGaussianBlur in="SourceAlpha" result="shadowBlurInner8" stdDeviation="1"/><feOffset dx="-1" in="shadowBlurInner8" result="shadowOffsetInner8"/><feComposite in="shadowOffsetInner8" in2="SourceAlpha" k2="-1" k3="1" operator="arithmetic" result="shadowInnerInner8"/><feColorMatrix in="shadowInnerInner8" result="shadowMatrixInner8" values="0 0 0 0 0.723986639 0 0 0 0 0.723986639 0 0 0 0 0.723986639 0 0 0 0.25 0"/><feMerge><feMergeNode in="shadowMatrixInner1"/><feMergeNode in="shadowMatrixInner2"/><feMergeNode in="shadowMatrixInner3"/><feMergeNode in="shadowMatrixInner4"/><feMergeNode in="shadowMatrixInner5"/><feMergeNode in="shadowMatrixInner6"/><feMergeNode in="shadowMatrixInner7"/><feMergeNode in="shadowMatrixInner8"/></feMerge></filter><filter id="s" width="380%" height="123.1%" x="-140%" y="-11.6%" filterUnits="objectBoundingBox"><feGaussianBlur in="SourceAlpha" result="shadowBlurInner1" stdDeviation="4"/><feOffset dy="-20" in="shadowBlurInner1" result="shadowOffsetInner1"/><feComposite in="shadowOffsetInner1" in2="SourceAlpha" k2="-1" k3="1" operator="arithmetic" result="shadowInnerInner1"/><feColorMatrix in="shadowInnerInner1" result="shadowMatrixInner1" values="0 0 0 0 0.796078431 0 0 0 0 0.352941176 0 0 0 0 0.17254902 0 0 0 0.77381993 0"/><feGaussianBlur in="SourceAlpha" result="shadowBlurInner2" stdDeviation="3"/><feOffset dy="-9" in="shadowBlurInner2" result="shadowOffsetInner2"/><feComposite in="shadowOffsetInner2" in2="SourceAlpha" k2="-1" k3="1" operator="arithmetic" result="shadowInnerInner2"/><feColorMatrix in="shadowInnerInner2" result="shadowMatrixInner2" values="0 0 0 0 1 0 0 0 0 0.786862222 0 0 0 0 0.633079268 0 0 0 0.4 0"/><feGaussianBlur in="SourceAlpha" result="shadowBlurInner3" stdDeviation="1"/><feOffset dx="4" in="shadowBlurInner3" result="shadowOffsetInner3"/><feComposite in="shadowOffsetInner3" in2="SourceAlpha" k2="-1" k3="1" operator="arithmetic" result="shadowInnerInner3"/><feColorMatrix in="shadowInnerInner3" result="shadowMatrixInner3" values="0 0 0 0 0.749207428 0 0 0 0 0.239019124 0 0 0 0 0.0311646306 0 0 0 0.713914991 0"/><feMorphology in="SourceAlpha" operator="dilate" radius="6" result="shadowSpreadInner4"/><feGaussianBlur in="shadowSpreadInner4" result="shadowBlurInner4" stdDeviation="4"/><feOffset dy="24" in="shadowBlurInner4" result="shadowOffsetInner4"/><feComposite in="shadowOffsetInner4" in2="SourceAlpha" k2="-1" k3="1" operator="arithmetic" result="shadowInnerInner4"/><feColorMatrix in="shadowInnerInner4" result="shadowMatrixInner4" values="0 0 0 0 1 0 0 0 0 0.882352941 0 0 0 0 0.733333333 0 0 0 0.9 0"/><feMorphology in="SourceAlpha" operator="dilate" radius="2" result="shadowSpreadInner5"/><feGaussianBlur in="shadowSpreadInner5" result="shadowBlurInner5" stdDeviation="2"/><feOffset dy="8" in="shadowBlurInner5" result="shadowOffsetInner5"/><feComposite in="shadowOffsetInner5" in2="SourceAlpha" k2="-1" k3="1" operator="arithmetic" result="shadowInnerInner5"/><feColorMatrix in="shadowInnerInner5" result="shadowMatrixInner5" values="0 0 0 0 0.788235294 0 0 0 0 0.376470588 0 0 0 0 0.164705882 0 0 0 1 0"/><feGaussianBlur in="SourceAlpha" result="shadowBlurInner6" stdDeviation="1"/><feOffset dy="-2" in="shadowBlurInner6" result="shadowOffsetInner6"/><feComposite in="shadowOffsetInner6" in2="SourceAlpha" k2="-1" k3="1" operator="arithmetic" result="shadowInnerInner6"/><feColorMatrix in="shadowInnerInner6" result="shadowMatrixInner6" values="0 0 0 0 0.488394475 0 0 0 0 0.163845752 0 0 0 0 0.0315297348 0 0 0 0.8 0"/><feGaussianBlur in="SourceAlpha" result="shadowBlurInner7" stdDeviation="1"/><feOffset dx="-2" in="shadowBlurInner7" result="shadowOffsetInner7"/><feComposite in="shadowOffsetInner7" in2="SourceAlpha" k2="-1" k3="1" operator="arithmetic" result="shadowInnerInner7"/><feColorMatrix in="shadowInnerInner7" result="shadowMatrixInner7" values="0 0 0 0 0.988235294 0 0 0 0 0.729411765 0 0 0 0 0.529411765 0 0 0 1 0"/><feGaussianBlur in="SourceAlpha" result="shadowBlurInner8" stdDeviation="1"/><feOffset dx="-1" in="shadowBlurInner8" result="shadowOffsetInner8"/><feComposite in="shadowOffsetInner8" in2="SourceAlpha" k2="-1" k3="1" operator="arithmetic" result="shadowInnerInner8"/><feColorMatrix in="shadowInnerInner8" result="shadowMatrixInner8" values="0 0 0 0 0.723986639 0 0 0 0 0.723986639 0 0 0 0 0.723986639 0 0 0 0.25 0"/><feMerge><feMergeNode in="shadowMatrixInner1"/><feMergeNode in="shadowMatrixInner2"/><feMergeNode in="shadowMatrixInner3"/><feMergeNode in="shadowMatrixInner4"/><feMergeNode in="shadowMatrixInner5"/><feMergeNode in="shadowMatrixInner6"/><feMergeNode in="shadowMatrixInner7"/><feMergeNode in="shadowMatrixInner8"/></feMerge></filter><filter id="u" width="380%" height="108.7%" x="-140%" y="-4.3%" filterUnits="objectBoundingBox"><feGaussianBlur in="SourceAlpha" result="shadowBlurInner1" stdDeviation="4"/><feOffset dy="-20" in="shadowBlurInner1" result="shadowOffsetInner1"/><feComposite in="shadowOffsetInner1" in2="SourceAlpha" k2="-1" k3="1" operator="arithmetic" result="shadowInnerInner1"/><feColorMatrix in="shadowInnerInner1" result="shadowMatrixInner1" values="0 0 0 0 0.796078431 0 0 0 0 0.352941176 0 0 0 0 0.17254902 0 0 0 0.77381993 0"/><feGaussianBlur in="SourceAlpha" result="shadowBlurInner2" stdDeviation="3"/><feOffset dy="-9" in="shadowBlurInner2" result="shadowOffsetInner2"/><feComposite in="shadowOffsetInner2" in2="SourceAlpha" k2="-1" k3="1" operator="arithmetic" result="shadowInnerInner2"/><feColorMatrix in="shadowInnerInner2" result="shadowMatrixInner2" values="0 0 0 0 1 0 0 0 0 0.786862222 0 0 0 0 0.633079268 0 0 0 0.4 0"/><feGaussianBlur in="SourceAlpha" result="shadowBlurInner3" stdDeviation="1"/><feOffset dx="4" in="shadowBlurInner3" result="shadowOffsetInner3"/><feComposite in="shadowOffsetInner3" in2="SourceAlpha" k2="-1" k3="1" operator="arithmetic" result="shadowInnerInner3"/><feColorMatrix in="shadowInnerInner3" result="shadowMatrixInner3" values="0 0 0 0 0.749207428 0 0 0 0 0.239019124 0 0 0 0 0.0311646306 0 0 0 0.713914991 0"/><feMorphology in="SourceAlpha" operator="dilate" radius="6" result="shadowSpreadInner4"/><feGaussianBlur in="shadowSpreadInner4" result="shadowBlurInner4" stdDeviation="4"/><feOffset dy="24" in="shadowBlurInner4" result="shadowOffsetInner4"/><feComposite in="shadowOffsetInner4" in2="SourceAlpha" k2="-1" k3="1" operator="arithmetic" result="shadowInnerInner4"/><feColorMatrix in="shadowInnerInner4" result="shadowMatrixInner4" values="0 0 0 0 1 0 0 0 0 0.882352941 0 0 0 0 0.733333333 0 0 0 0.9 0"/><feMorphology in="SourceAlpha" operator="dilate" radius="2" result="shadowSpreadInner5"/><feGaussianBlur in="shadowSpreadInner5" result="shadowBlurInner5" stdDeviation="2"/><feOffset dy="8" in="shadowBlurInner5" result="shadowOffsetInner5"/><feComposite in="shadowOffsetInner5" in2="SourceAlpha" k2="-1" k3="1" operator="arithmetic" result="shadowInnerInner5"/><feColorMatrix in="shadowInnerInner5" result="shadowMatrixInner5" values="0 0 0 0 0.788235294 0 0 0 0 0.376470588 0 0 0 0 0.164705882 0 0 0 1 0"/><feGaussianBlur in="SourceAlpha" result="shadowBlurInner6" stdDeviation="1"/><feOffset dy="-2" in="shadowBlurInner6" result="shadowOffsetInner6"/><feComposite in="shadowOffsetInner6" in2="SourceAlpha" k2="-1" k3="1" operator="arithmetic" result="shadowInnerInner6"/><feColorMatrix in="shadowInnerInner6" result="shadowMatrixInner6" values="0 0 0 0 0.488394475 0 0 0 0 0.163845752 0 0 0 0 0.0315297348 0 0 0 0.8 0"/><feGaussianBlur in="SourceAlpha" result="shadowBlurInner7" stdDeviation="1"/><feOffset dx="-2" in="shadowBlurInner7" result="shadowOffsetInner7"/><feComposite in="shadowOffsetInner7" in2="SourceAlpha" k2="-1" k3="1" operator="arithmetic" result="shadowInnerInner7"/><feColorMatrix in="shadowInnerInner7" result="shadowMatrixInner7" values="0 0 0 0 0.988235294 0 0 0 0 0.729411765 0 0 0 0 0.529411765 0 0 0 1 0"/><feGaussianBlur in="SourceAlpha" result="shadowBlurInner8" stdDeviation="1"/><feOffset dx="-1" in="shadowBlurInner8" result="shadowOffsetInner8"/><feComposite in="shadowOffsetInner8" in2="SourceAlpha" k2="-1" k3="1" operator="arithmetic" result="shadowInnerInner8"/><feColorMatrix in="shadowInnerInner8" result="shadowMatrixInner8" values="0 0 0 0 0.723986639 0 0 0 0 0.723986639 0 0 0 0 0.723986639 0 0 0 0.25 0"/><feMerge><feMergeNode in="shadowMatrixInner1"/><feMergeNode in="shadowMatrixInner2"/><feMergeNode in="shadowMatrixInner3"/><feMergeNode in="shadowMatrixInner4"/><feMergeNode in="shadowMatrixInner5"/><feMergeNode in="shadowMatrixInner6"/><feMergeNode in="shadowMatrixInner7"/><feMergeNode in="shadowMatrixInner8"/></feMerge></filter><filter id="w" width="184.4%" height="184.4%" x="-42.2%" y="-42.2%" filterUnits="objectBoundingBox"><feOffset in="SourceAlpha" result="shadowOffsetOuter1"/><feGaussianBlur in="shadowOffsetOuter1" result="shadowBlurOuter1" stdDeviation="4.5"/><feColorMatrix in="shadowBlurOuter1" values="0 0 0 0 0.105882353 0 0 0 0 0.0941176471 0 0 0 0 0.180392157 0 0 0 1 0"/></filter><filter id="y" width="184.4%" height="184.4%" x="-42.2%" y="-42.2%" filterUnits="objectBoundingBox"><feGaussianBlur in="SourceAlpha" result="shadowBlurInner1" stdDeviation="4.5"/><feOffset in="shadowBlurInner1" result="shadowOffsetInner1"/><feComposite in="shadowOffsetInner1" in2="SourceAlpha" k2="-1" k3="1" operator="arithmetic" result="shadowInnerInner1"/><feColorMatrix in="shadowInnerInner1" result="shadowMatrixInner1" values="0 0 0 0 0.0392156863 0 0 0 0 0.0392156863 0 0 0 0 0.0901960784 0 0 0 1 0"/><feMorphology in="SourceAlpha" operator="dilate" radius="4" result="shadowSpreadInner2"/><feGaussianBlur in="shadowSpreadInner2" result="shadowBlurInner2" stdDeviation="2"/><feOffset dx="-6" in="shadowBlurInner2" result="shadowOffsetInner2"/><feComposite in="shadowOffsetInner2" in2="SourceAlpha" k2="-1" k3="1" operator="arithmetic" result="shadowInnerInner2"/><feColorMatrix in="shadowInnerInner2" result="shadowMatrixInner2" values="0 0 0 0 0.031372549 0 0 0 0 0.0588235294 0 0 0 0 0.219607843 0 0 0 1 0"/><feMorphology in="SourceAlpha" operator="dilate" radius="4" result="shadowSpreadInner3"/><feGaussianBlur in="shadowSpreadInner3" result="shadowBlurInner3" stdDeviation="2"/><feOffset dy="4" in="shadowBlurInner3" result="shadowOffsetInner3"/><feComposite in="shadowOffsetInner3" in2="SourceAlpha" k2="-1" k3="1" operator="arithmetic" result="shadowInnerInner3"/><feColorMatrix in="shadowInnerInner3" result="shadowMatrixInner3" values="0 0 0 0 0.031372549 0 0 0 0 0.0588235294 0 0 0 0 0.219607843 0 0 0 1 0"/><feMorphology in="SourceAlpha" operator="dilate" radius="4" result="shadowSpreadInner4"/><feGaussianBlur in="shadowSpreadInner4" result="shadowBlurInner4" stdDeviation="2"/><feOffset dx="6" in="shadowBlurInner4" result="shadowOffsetInner4"/><feComposite in="shadowOffsetInner4" in2="SourceAlpha" k2="-1" k3="1" operator="arithmetic" result="shadowInnerInner4"/><feColorMatrix in="shadowInnerInner4" result="shadowMatrixInner4" values="0 0 0 0 0.031372549 0 0 0 0 0.0588235294 0 0 0 0 0.219607843 0 0 0 1 0"/><feMerge><feMergeNode in="shadowMatrixInner1"/><feMergeNode in="shadowMatrixInner2"/><feMergeNode in="shadowMatrixInner3"/><feMergeNode in="shadowMatrixInner4"/></feMerge></filter><filter id="D" width="120.8%" height="120.8%" x="-10.4%" y="-10.4%" filterUnits="objectBoundingBox"><feGaussianBlur in="SourceAlpha" result="shadowBlurInner1" stdDeviation="2"/><feOffset dy="1" in="shadowBlurInner1" result="shadowOffsetInner1"/><feComposite in="shadowOffsetInner1" in2="SourceAlpha" k2="-1" k3="1" operator="arithmetic" result="shadowInnerInner1"/><feColorMatrix in="shadowInnerInner1" values="0 0 0 0 0.0196078431 0 0 0 0 0.0235294118 0 0 0 0 0.0784313725 0 0 0 1 0"/></filter><path id="a" d="M996.461546,1 C1101.66076,1 1139.80853,11.9534221 1178.26779,32.521659 C1216.72705,53.089896 1246.9101,83.2729477 1267.47834,121.732207 C1288.04658,160.191466 1299,198.339242 1299,303.538454 L1299,2414.46155 C1299,2519.66076 1288.04658,2557.80853 1267.47834,2596.26779 C1246.9101,2634.72705 1216.72705,2664.9101 1178.26779,2685.47834 C1139.80853,2706.04658 1101.66076,2717 996.461546,2717 L303.538454,2717 C198.339242,2717 160.191466,2706.04658 121.732207,2685.47834 C83.2729477,2664.9101 53.089896,2634.72705 32.521659,2596.26779 C11.9534221,2557.80853 1,2519.66076 1,2414.46155 L1,303.538454 C1,198.339242 11.9534221,160.191466 32.521659,121.732207 C53.089896,83.2729477 83.2729477,53.089896 121.732207,32.521659 C160.191466,11.9534221 198.339242,1 303.538454,1 L996.461546,1 Z M1017.12256,48 L282.877438,48 C200.857714,48 171.11538,56.5399562 141.130195,72.5762087 C111.14501,88.6124613 87.6124613,112.14501 71.5762087,142.130195 C55.5399562,172.11538 47,201.857714 47,283.877438 L47,2434.12256 C47,2516.14229 55.5399562,2545.88462 71.5762087,2575.8698 C87.6124613,2605.85499 111.14501,2629.38754 141.130195,2645.42379 C171.11538,2661.46004 200.857714,2670 282.877438,2670 L1017.12256,2670 C1099.14229,2670 1128.88462,2661.46004 1158.8698,2645.42379 C1188.85499,2629.38754 1212.38754,2605.85499 1228.42379,2575.8698 C1244.46004,2545.88462 1253,2516.14229 1253,2434.12256 L1253,283.877438 C1253,201.857714 1244.46004,172.11538 1228.42379,142.130195 C1212.38754,112.14501 1188.85499,88.6124613 1158.8698,72.5762087 C1128.88462,56.5399562 1099.14229,48 1017.12256,48 Z"/><path id="n" d="M0,776 L6,776 C8.209139,776 10,777.790861 10,780 L10,972 C10,974.209139 8.209139,976 6,976 L0,976 L0,976 L0,776 Z"/><path id="p" d="M0,1032 L6,1032 C8.209139,1032 10,1033.79086 10,1036 L10,1228 C10,1230.20914 8.209139,1232 6,1232 L0,1232 L0,1232 L0,1032 Z"/><path id="r" d="M0,558 L6,558 C8.209139,558 10,559.790861 10,562 L10,675 C10,677.209139 8.209139,679 6,679 L0,679 L0,679 L0,558 Z"/><path id="t" d="M1308,846 L1314,846 C1316.20914,846 1318,847.790861 1318,850 L1318,1164 C1318,1166.20914 1316.20914,1168 1314,1168 L1308,1168 L1308,1168 L1308,846 Z"/><linearGradient id="c" x1="50%" x2="50%" y1="0%" y2="100%"><stop offset="0%" stop-color="#FFF" stop-opacity="0"/><stop offset=".761%" stop-color="#562210" stop-opacity="0"/><stop offset="2.35%" stop-color="#562210" stop-opacity=".4"/><stop offset="3.969%" stop-color="#562210" stop-opacity=".4"/><stop offset="5.954%" stop-color="#562210" stop-opacity=".2"/><stop offset="8.721%" stop-color="#ACACAC" stop-opacity="0"/><stop offset="91.824%" stop-color="#562210" stop-opacity="0"/><stop offset="93.952%" stop-color="#562210" stop-opacity=".2"/><stop offset="96.648%" stop-color="#562210" stop-opacity=".4"/><stop offset="99.177%" stop-color="#562210" stop-opacity=".2"/><stop offset="100%" stop-color="#562210" stop-opacity=".4"/></linearGradient><linearGradient id="e" x1="0%" x2="100%" y1="50%" y2="50%"><stop offset="0%" stop-color="#A84A23"/><stop offset="8.775%" stop-color="#AD4D25"/><stop offset="13.493%" stop-color="#F48C5A"/><stop offset="27.553%" stop-color="#FF9F69"/><stop offset="33.725%" stop-color="#F69258"/><stop offset="53.427%" stop-color="#E06522"/><stop offset="76.223%" stop-color="#D34F0F"/><stop offset="86.748%" stop-color="#C5410E"/><stop offset="100%" stop-color="#A53714"/></linearGradient><linearGradient id="h" x1="0%" x2="100%" y1="50%" y2="50%"><stop offset="0%" stop-color="#A53714"/><stop offset="13.252%" stop-color="#C5410E"/><stop offset="23.777%" stop-color="#D34F0F"/><stop offset="46.573%" stop-color="#E06522"/><stop offset="66.275%" stop-color="#F69258"/><stop offset="72.447%" stop-color="#FF9F69"/><stop offset="86.507%" stop-color="#F48C5A"/><stop offset="91.225%" stop-color="#AD4D25"/><stop offset="100%" stop-color="#A84A23"/></linearGradient><linearGradient id="x" x1="50%" x2="50%" y1="0%" y2="100%"><stop offset="0%" stop-color="#19283B"/><stop offset="1.599%" stop-color="#2D415D"/><stop offset="3.755%" stop-color="#51667D"/><stop offset="5.193%" stop-color="#3B5975"/><stop offset="7.43%" stop-color="#2E4D68"/><stop offset="10.029%" stop-color="#213E57"/><stop offset="11.766%" stop-color="#10314A"/><stop offset="90.061%" stop-color="#280D58"/><stop offset="92.768%" stop-color="#2E1751"/><stop offset="97.359%" stop-color="#231538"/><stop offset="100%" stop-color="#130E1F"/></linearGradient><rect id="d" width="18" height="28" x="1282" y="279"/><rect id="g" width="18" height="28" x="0" y="279"/><rect id="j" width="18" height="28" x="0" y="2412"/><rect id="l" width="18" height="28" x="1281" y="2412"/><radialGradient id="A" cx="50%" cy="0%" r="50%" fx="50%" fy="0%"><stop offset="0%" stop-color="#414A67"/><stop offset="40.532%" stop-color="#33366F"/><stop offset="72.266%" stop-color="#18184D"/><stop offset="100%" stop-color="#030517"/></radialGradient><radialGradient id="B" cx="54.402%" cy="80.892%" r="36.116%" fx="54.402%" fy="80.892%" gradientTransform="matrix(.09353 -.99562 1.07278 .10078 -.374 1.27)"><stop offset="0%" stop-color="#1E3A44"/><stop offset="8.663%" stop-color="#1C3A43"/><stop offset="18.325%" stop-color="#0C3943"/><stop offset="32.867%" stop-color="#01313D"/><stop offset="48.872%" stop-color="#002433"/><stop offset="63.68%" stop-color="#001F35" stop-opacity=".4"/><stop offset="100%" stop-color="#02081F" stop-opacity="0"/></radialGradient><radialGradient id="C" cx="50%" cy="96.469%" r="24.982%" fx="50%" fy="96.469%" gradientTransform="matrix(0 1 -3.2196 0 3.606 .465)"><stop offset="0%" stop-color="#340F54"/><stop offset="25.286%" stop-color="#340F54" stop-opacity=".6"/><stop offset="50.265%" stop-color="#071280" stop-opacity=".2"/><stop offset="100%" stop-color="#071280" stop-opacity="0"/></radialGradient><circle id="v" cx="16" cy="16" r="16"/><circle id="z" cx="16" cy="16" r="12"/></defs><g fill="none" fill-rule="evenodd" transform="translate(45 53)"><g transform="translate(8 -1)"><mask id="b" fill="#fff"><use xlink:href="#a"/></mask><use xlink:href="#a" fill="#D8D8D8"/><g mask="url(#b)"><path stroke="#F6A36C" stroke-linejoin="square" stroke-width="8" d="M303.538454,5 L996.461546,5 C1100.52797,5 1138.32119,15.694088 1176.3814,36.0489118 C1214.13327,56.2388354 1243.76116,85.8667277 1263.95109,123.618602 C1284.30591,161.678814 1295,199.472031 1295,303.538454 L1295,2414.46155 C1295,2518.52797 1284.30591,2556.32119 1263.95109,2594.3814 C1243.76116,2632.13327 1214.13327,2661.76116 1176.3814,2681.95109 C1138.32119,2702.30591 1100.52797,2713 996.461546,2713 L303.538454,2713 C199.472031,2713 161.678814,2702.30591 123.618602,2681.95109 C85.8667277,2661.76116 56.2388354,2632.13327 36.0489118,2594.3814 C15.694088,2556.32119 5,2518.52797 5,2414.46155 L5,303.538454 C5,199.472031 15.694088,161.678814 36.0489118,123.618602 C56.2388354,85.8667277 85.8667277,56.2388354 123.618602,36.0489118 C161.678814,15.694088 199.472031,5 303.538454,5 Z"/><path stroke="#6C270D" stroke-linejoin="square" stroke-width="18" d="M303.538454,10 L996.461546,10 C1099.11198,10 1136.462,20.3699203 1174.0234,40.4579778 C1210.89105,60.1750097 1239.82499,89.1089526 1259.54202,125.976597 C1279.63008,163.537999 1290,200.888017 1290,303.538454 L1290,2414.46155 C1290,2517.11198 1279.63008,2554.462 1259.54202,2592.0234 C1239.82499,2628.89105 1210.89105,2657.82499 1174.0234,2677.54202 C1136.462,2697.63008 1099.11198,2708 996.461546,2708 L303.538454,2708 C200.888017,2708 163.537999,2697.63008 125.976597,2677.54202 C89.1089526,2657.82499 60.1750097,2628.89105 40.4579778,2592.0234 C20.3699203,2554.462 10,2517.11198 10,2414.46155 L10,303.538454 C10,200.888017 20.3699203,163.537999 40.4579778,125.976597 C60.1750097,89.1089526 89.1089526,60.1750097 125.976597,40.4579778 C163.537999,20.3699203 200.888017,10 303.538454,10 Z"/><path stroke="#924C2C" stroke-linejoin="square" stroke-width="17" d="M303.538454,9.5 L996.461546,9.5 C1099.25358,9.5 1136.64792,19.9023371 1174.2592,40.0170712 C1211.21527,59.7813923 1240.21861,88.7847301 1259.98293,125.740797 C1280.09766,163.35208 1290.5,200.746419 1290.5,303.538454 L1290.5,2414.46155 C1290.5,2517.25358 1280.09766,2554.64792 1259.98293,2592.2592 C1240.21861,2629.21527 1211.21527,2658.21861 1174.2592,2677.98293 C1136.64792,2698.09766 1099.25358,2708.5 996.461546,2708.5 L303.538454,2708.5 C200.746419,2708.5 163.35208,2698.09766 125.740797,2677.98293 C88.7847301,2658.21861 59.7813923,2629.21527 40.0170712,2592.2592 C19.9023371,2554.64792 9.5,2517.25358 9.5,2414.46155 L9.5,303.538454 C9.5,200.746419 19.9023371,163.35208 40.0170712,125.740797 C59.7813923,88.7847301 88.7847301,59.7813923 125.740797,40.0170712 C163.35208,19.9023371 200.746419,9.5 303.538454,9.5 Z"/><path stroke="#BB744F" stroke-linejoin="square" stroke-width="16" d="M303.538454,9 L996.461546,9 C1099.39518,9 1136.83384,19.4347538 1174.495,39.5761646 C1211.53949,59.3877748 1240.61223,88.4605076 1260.42384,125.504998 C1280.56525,163.166162 1291,200.60482 1291,303.538454 L1291,2414.46155 C1291,2517.39518 1280.56525,2554.83384 1260.42384,2592.495 C1240.61223,2629.53949 1211.53949,2658.61223 1174.495,2678.42384 C1136.83384,2698.56525 1099.39518,2709 996.461546,2709 L303.538454,2709 C200.60482,2709 163.166162,2698.56525 125.504998,2678.42384 C88.4605076,2658.61223 59.3877748,2629.53949 39.5761646,2592.495 C19.4347538,2554.83384 9,2517.39518 9,2414.46155 L9,303.538454 C9,200.60482 19.4347538,163.166162 39.5761646,125.504998 C59.3877748,88.4605076 88.4605076,59.3877748 125.504998,39.5761646 C163.166162,19.4347538 200.60482,9 303.538454,9 Z"/><path stroke="#EEB38D" stroke-linejoin="square" stroke-width="15" d="M303.538454,8.5 L996.461546,8.5 C1099.53678,8.5 1137.01976,18.9671706 1174.7308,39.135258 C1211.86371,58.9941574 1241.00584,88.1362851 1260.86474,125.269198 C1281.03283,162.980243 1291.5,200.463221 1291.5,303.538454 L1291.5,2414.46155 C1291.5,2517.53678 1281.03283,2555.01976 1260.86474,2592.7308 C1241.00584,2629.86371 1211.86371,2659.00584 1174.7308,2678.86474 C1137.01976,2699.03283 1099.53678,2709.5 996.461546,2709.5 L303.538454,2709.5 C200.463221,2709.5 162.980243,2699.03283 125.269198,2678.86474 C88.1362851,2659.00584 58.9941574,2629.86371 39.135258,2592.7308 C18.9671706,2555.01976 8.5,2517.53678 8.5,2414.46155 L8.5,303.538454 C8.5,200.463221 18.9671706,162.980243 39.135258,125.269198 C58.9941574,88.1362851 88.1362851,58.9941574 125.269198,39.135258 C162.980243,18.9671706 200.463221,8.5 303.538454,8.5 Z"/><path stroke="#FFCBA4" stroke-linejoin="square" stroke-width="14" d="M303.538454,8 L996.461546,8 C1099.67838,8 1137.20568,18.4995874 1174.9666,38.6943514 C1212.18794,58.60054 1241.39946,87.8120626 1261.30565,125.033399 C1281.50041,162.794325 1292,200.321623 1292,303.538454 L1292,2414.46155 C1292,2517.67838 1281.50041,2555.20568 1261.30565,2592.9666 C1241.39946,2630.18794 1212.18794,2659.39946 1174.9666,2679.30565 C1137.20568,2699.50041 1099.67838,2710 996.461546,2710 L303.538454,2710 C200.321623,2710 162.794325,2699.50041 125.033399,2679.30565 C87.8120626,2659.39946 58.60054,2630.18794 38.6943514,2592.9666 C18.4995874,2555.20568 8,2517.67838 8,2414.46155 L8,303.538454 C8,200.321623 18.4995874,162.794325 38.6943514,125.033399 C58.60054,87.8120626 87.8120626,58.60054 125.033399,38.6943514 C162.794325,18.4995874 200.321623,8 303.538454,8 Z"/><path stroke="#FFDDB7" stroke-linejoin="square" stroke-width="13" d="M303.538454,7.5 L996.461546,7.5 C1099.81998,7.5 1137.39159,18.0320041 1175.2024,38.2534448 C1212.51216,58.2069225 1241.79308,87.4878401 1261.74656,124.7976 C1281.968,162.608406 1292.5,200.180024 1292.5,303.538454 L1292.5,2414.46155 C1292.5,2517.81998 1281.968,2555.39159 1261.74656,2593.2024 C1241.79308,2630.51216 1212.51216,2659.79308 1175.2024,2679.74656 C1137.39159,2699.968 1099.81998,2710.5 996.461546,2710.5 L303.538454,2710.5 C200.180024,2710.5 162.608406,2699.968 124.7976,2679.74656 C87.4878401,2659.79308 58.2069225,2630.51216 38.2534448,2593.2024 C18.0320041,2555.39159 7.5,2517.81998 7.5,2414.46155 L7.5,303.538454 C7.5,200.180024 18.0320041,162.608406 38.2534448,124.7976 C58.2069225,87.4878401 87.4878401,58.2069225 124.7976,38.2534448 C162.608406,18.0320041 200.180024,7.5 303.538454,7.5 Z"/><path stroke="#FFDAB3" stroke-linejoin="square" stroke-width="12" d="M303.538454,7 L996.461546,7 C1099.96157,7 1137.57751,17.5644209 1175.4382,37.8125382 C1212.83638,57.8133051 1242.18669,87.1636176 1262.18746,124.5618 C1282.43558,162.422488 1293,200.038426 1293,303.538454 L1293,2414.46155 C1293,2517.96157 1282.43558,2555.57751 1262.18746,2593.4382 C1242.18669,2630.83638 1212.83638,2660.18669 1175.4382,2680.18746 C1137.57751,2700.43558 1099.96157,2711 996.461546,2711 L303.538454,2711 C200.038426,2711 162.422488,2700.43558 124.5618,2680.18746 C87.1636176,2660.18669 57.8133051,2630.83638 37.8125382,2593.4382 C17.5644209,2555.57751 7,2517.96157 7,2414.46155 L7,303.538454 C7,200.038426 17.5644209,162.422488 37.8125382,124.5618 C57.8133051,87.1636176 87.1636176,57.8133051 124.5618,37.8125382 C162.422488,17.5644209 200.038426,7 303.538454,7 Z"/><path stroke="#FCCFA5" stroke-linejoin="square" stroke-width="11" d="M303.538454,6.5 L996.461546,6.5 C1100.10317,6.5 1137.76343,17.0968377 1175.674,37.3716316 C1213.1606,57.4196877 1242.58031,86.8393951 1262.62837,124.326001 C1282.90316,162.236569 1293.5,199.896827 1293.5,303.538454 L1293.5,2414.46155 C1293.5,2518.10317 1282.90316,2555.76343 1262.62837,2593.674 C1242.58031,2631.1606 1213.1606,2660.58031 1175.674,2680.62837 C1137.76343,2700.90316 1100.10317,2711.5 996.461546,2711.5 L303.538454,2711.5 C199.896827,2711.5 162.236569,2700.90316 124.326001,2680.62837 C86.8393951,2660.58031 57.4196877,2631.1606 37.3716316,2593.674 C17.0968377,2555.76343 6.5,2518.10317 6.5,2414.46155 L6.5,303.538454 C6.5,199.896827 17.0968377,162.236569 37.3716316,124.326001 C57.4196877,86.8393951 86.8393951,57.4196877 124.326001,37.3716316 C162.236569,17.0968377 199.896827,6.5 303.538454,6.5 Z"/><path stroke="#FCBF8F" stroke-linejoin="square" stroke-width="10" d="M303.538454,6 L996.461546,6 C1100.24477,6 1137.94935,16.6292544 1175.9098,36.930725 C1213.48483,57.0260703 1242.97393,86.5151726 1263.06927,124.090201 C1283.37075,162.050651 1294,199.755228 1294,303.538454 L1294,2414.46155 C1294,2518.24477 1283.37075,2555.94935 1263.06927,2593.9098 C1242.97393,2631.48483 1213.48483,2660.97393 1175.9098,2681.06927 C1137.94935,2701.37075 1100.24477,2712 996.461546,2712 L303.538454,2712 C199.755228,2712 162.050651,2701.37075 124.090201,2681.06927 C86.5151726,2660.97393 57.0260703,2631.48483 36.930725,2593.9098 C16.6292544,2555.94935 6,2518.24477 6,2414.46155 L6,303.538454 C6,199.755228 16.6292544,162.050651 36.930725,124.090201 C57.0260703,86.5151726 86.5151726,57.0260703 124.090201,36.930725 C162.050651,16.6292544 199.755228,6 303.538454,6 Z"/><path stroke="#F8B682" stroke-linejoin="square" stroke-width="9" d="M303.538454,5.5 L996.461546,5.5 C1100.38637,5.5 1138.13527,16.1616712 1176.1456,36.4898184 C1213.80905,56.6324528 1243.36755,86.1909501 1263.51018,123.854402 C1283.83833,161.864732 1294.5,199.61363 1294.5,303.538454 L1294.5,2414.46155 C1294.5,2518.38637 1283.83833,2556.13527 1263.51018,2594.1456 C1243.36755,2631.80905 1213.80905,2661.36755 1176.1456,2681.51018 C1138.13527,2701.83833 1100.38637,2712.5 996.461546,2712.5 L303.538454,2712.5 C199.61363,2712.5 161.864732,2701.83833 123.854402,2681.51018 C86.1909501,2661.36755 56.6324528,2631.80905 36.4898184,2594.1456 C16.1616712,2556.13527 5.5,2518.38637 5.5,2414.46155 L5.5,303.538454 C5.5,199.61363 16.1616712,161.864732 36.4898184,123.854402 C56.6324528,86.1909501 86.1909501,56.6324528 123.854402,36.4898184 C161.864732,16.1616712 199.61363,5.5 303.538454,5.5 Z"/><path stroke="#F5A16B" stroke-linejoin="square" stroke-width="8" d="M303.538454,5 L996.461546,5 C1100.52797,5 1138.32119,15.694088 1176.3814,36.0489118 C1214.13327,56.2388354 1243.76116,85.8667277 1263.95109,123.618602 C1284.30591,161.678814 1295,199.472031 1295,303.538454 L1295,2414.46155 C1295,2518.52797 1284.30591,2556.32119 1263.95109,2594.3814 C1243.76116,2632.13327 1214.13327,2661.76116 1176.3814,2681.95109 C1138.32119,2702.30591 1100.52797,2713 996.461546,2713 L303.538454,2713 C199.472031,2713 161.678814,2702.30591 123.618602,2681.95109 C85.8667277,2661.76116 56.2388354,2632.13327 36.0489118,2594.3814 C15.694088,2556.32119 5,2518.52797 5,2414.46155 L5,303.538454 C5,199.472031 15.694088,161.678814 36.0489118,123.618602 C56.2388354,85.8667277 85.8667277,56.2388354 123.618602,36.0489118 C161.678814,15.694088 199.472031,5 303.538454,5 Z"/><path stroke="#F49A63" stroke-linejoin="square" stroke-width="7" d="M303.538454,4.5 L996.461546,4.5 C1100.66957,4.5 1138.5071,15.2265047 1176.6172,35.6080052 C1214.45749,55.845218 1244.15478,85.5425052 1264.39199,123.382803 C1284.7735,161.492895 1295.5,199.330433 1295.5,303.538454 L1295.5,2414.46155 C1295.5,2518.66957 1284.7735,2556.5071 1264.39199,2594.6172 C1244.15478,2632.45749 1214.45749,2662.15478 1176.6172,2682.39199 C1138.5071,2702.7735 1100.66957,2713.5 996.461546,2713.5 L303.538454,2713.5 C199.330433,2713.5 161.492895,2702.7735 123.382803,2682.39199 C85.5425052,2662.15478 55.845218,2632.45749 35.6080052,2594.6172 C15.2265047,2556.5071 4.5,2518.66957 4.5,2414.46155 L4.5,303.538454 C4.5,199.330433 15.2265047,161.492895 35.6080052,123.382803 C55.845218,85.5425052 85.5425052,55.845218 123.382803,35.6080052 C161.492895,15.2265047 199.330433,4.5 303.538454,4.5 Z"/><path stroke="#F18B52" stroke-linejoin="square" stroke-width="6" d="M303.538454,4 L996.461546,4 C1100.81117,4 1138.69302,14.7589215 1176.853,35.1670986 C1214.78172,55.4516005 1244.5484,85.2182827 1264.8329,123.147004 C1285.24108,161.306977 1296,199.188834 1296,303.538454 L1296,2414.46155 C1296,2518.81117 1285.24108,2556.69302 1264.8329,2594.853 C1244.5484,2632.78172 1214.78172,2662.5484 1176.853,2682.8329 C1138.69302,2703.24108 1100.81117,2714 996.461546,2714 L303.538454,2714 C199.188834,2714 161.306977,2703.24108 123.147004,2682.8329 C85.2182827,2662.5484 55.4516005,2632.78172 35.1670986,2594.853 C14.7589215,2556.69302 4,2518.81117 4,2414.46155 L4,303.538454 C4,199.188834 14.7589215,161.306977 35.1670986,123.147004 C55.4516005,85.2182827 85.2182827,55.4516005 123.147004,35.1670986 C161.306977,14.7589215 199.188834,4 303.538454,4 Z"/><path stroke="#EC8148" stroke-linejoin="square" stroke-width="5" d="M303.538454,3.5 L996.461546,3.5 C1100.95276,3.5 1138.87894,14.2913383 1177.0888,34.726192 C1215.10594,55.0579831 1244.94202,84.8940602 1265.27381,122.911204 C1285.70866,161.121059 1296.5,199.047235 1296.5,303.538454 L1296.5,2414.46155 C1296.5,2518.95276 1285.70866,2556.87894 1265.27381,2595.0888 C1244.94202,2633.10594 1215.10594,2662.94202 1177.0888,2683.27381 C1138.87894,2703.70866 1100.95276,2714.5 996.461546,2714.5 L303.538454,2714.5 C199.047235,2714.5 161.121059,2703.70866 122.911204,2683.27381 C84.8940602,2662.94202 55.0579831,2633.10594 34.726192,2595.0888 C14.2913383,2556.87894 3.5,2518.95276 3.5,2414.46155 L3.5,303.538454 C3.5,199.047235 14.2913383,161.121059 34.726192,122.911204 C55.0579831,84.8940602 84.8940602,55.0579831 122.911204,34.726192 C161.121059,14.2913383 199.047235,3.5 303.538454,3.5 Z"/><path stroke="#E7753E" stroke-linejoin="square" stroke-width="4" d="M303.538454,3 L996.461546,3 C1101.09436,3 1139.06486,13.823755 1177.3246,34.2852854 C1215.43016,54.6643657 1245.33563,84.5698377 1265.71471,122.675405 C1286.17624,160.93514 1297,198.905637 1297,303.538454 L1297,2414.46155 C1297,2519.09436 1286.17624,2557.06486 1265.71471,2595.3246 C1245.33563,2633.43016 1215.43016,2663.33563 1177.3246,2683.71471 C1139.06486,2704.17624 1101.09436,2715 996.461546,2715 L303.538454,2715 C198.905637,2715 160.93514,2704.17624 122.675405,2683.71471 C84.5698377,2663.33563 54.6643657,2633.43016 34.2852854,2595.3246 C13.823755,2557.06486 3,2519.09436 3,2414.46155 L3,303.538454 C3,198.905637 13.823755,160.93514 34.2852854,122.675405 C54.6643657,84.5698377 84.5698377,54.6643657 122.675405,34.2852854 C160.93514,13.823755 198.905637,3 303.538454,3 Z"/><path stroke="#DA6530" stroke-linejoin="square" stroke-width="3" d="M303.538454,2.5 L996.461546,2.5 C1101.23596,2.5 1139.25078,13.3561718 1177.56039,33.8443788 C1215.75438,54.2707483 1245.72925,84.2456152 1266.15562,122.439605 C1286.64383,160.749222 1297.5,198.764038 1297.5,303.538454 L1297.5,2414.46155 C1297.5,2519.23596 1286.64383,2557.25078 1266.15562,2595.56039 C1245.72925,2633.75438 1215.75438,2663.72925 1177.56039,2684.15562 C1139.25078,2704.64383 1101.23596,2715.5 996.461546,2715.5 L303.538454,2715.5 C198.764038,2715.5 160.749222,2704.64383 122.439605,2684.15562 C84.2456152,2663.72925 54.2707483,2633.75438 33.8443788,2595.56039 C13.3561718,2557.25078 2.5,2519.23596 2.5,2414.46155 L2.5,303.538454 C2.5,198.764038 13.3561718,160.749222 33.8443788,122.439605 C54.2707483,84.2456152 84.2456152,54.2707483 122.439605,33.8443788 C160.749222,13.3561718 198.764038,2.5 303.538454,2.5 Z"/><path stroke="#D5612C" stroke-linejoin="square" stroke-width="2.5" d="M303.538454,2.25 L996.461546,2.25 C1101.30676,2.25 1139.34374,13.1223802 1177.67829,33.6239255 C1215.9165,54.0739395 1245.92606,84.083504 1266.37607,122.321706 C1286.87762,160.656262 1297.75,198.693239 1297.75,303.538454 L1297.75,2414.46155 C1297.75,2519.30676 1286.87762,2557.34374 1266.37607,2595.67829 C1245.92606,2633.9165 1215.9165,2663.92606 1177.67829,2684.37607 C1139.34374,2704.87762 1101.30676,2715.75 996.461546,2715.75 L303.538454,2715.75 C198.693239,2715.75 160.656262,2704.87762 122.321706,2684.37607 C84.083504,2663.92606 54.0739395,2633.9165 33.6239255,2595.67829 C13.1223802,2557.34374 2.25,2519.30676 2.25,2414.46155 L2.25,303.538454 C2.25,198.693239 13.1223802,160.656262 33.6239255,122.321706 C54.0739395,84.083504 84.083504,54.0739395 122.321706,33.6239255 C160.656262,13.1223802 198.693239,2.25 303.538454,2.25 Z"/><path stroke="#D05D2A" stroke-linejoin="square" stroke-width="2" d="M303.538454,2 L996.461546,2 C1101.37756,2 1139.4367,12.8885886 1177.79619,33.4034722 C1216.07861,53.8771308 1246.12287,83.9213927 1266.59653,122.203806 C1287.11141,160.563303 1298,198.62244 1298,303.538454 L1298,2414.46155 C1298,2519.37756 1287.11141,2557.4367 1266.59653,2595.79619 C1246.12287,2634.07861 1216.07861,2664.12287 1177.79619,2684.59653 C1139.4367,2705.11141 1101.37756,2716 996.461546,2716 L303.538454,2716 C198.62244,2716 160.563303,2705.11141 122.203806,2684.59653 C83.9213927,2664.12287 53.8771308,2634.07861 33.4034722,2595.79619 C12.8885886,2557.4367 2,2519.37756 2,2414.46155 L2,303.538454 C2,198.62244 12.8885886,160.563303 33.4034722,122.203806 C53.8771308,83.9213927 83.9213927,53.8771308 122.203806,33.4034722 C160.563303,12.8885886 198.62244,2 303.538454,2 Z"/><path stroke="#C05626" stroke-linejoin="square" stroke-width="1.5" d="M303.538454,1.75 L996.461546,1.75 C1101.44836,1.75 1139.52966,12.654797 1177.91409,33.1830189 C1216.24072,53.6803221 1246.31968,83.7592815 1266.81698,122.085906 C1287.3452,160.470344 1298.25,198.55164 1298.25,303.538454 L1298.25,2414.46155 C1298.25,2519.44836 1287.3452,2557.52966 1266.81698,2595.91409 C1246.31968,2634.24072 1216.24072,2664.31968 1177.91409,2684.81698 C1139.52966,2705.3452 1101.44836,2716.25 996.461546,2716.25 L303.538454,2716.25 C198.55164,2716.25 160.470344,2705.3452 122.085906,2684.81698 C83.7592815,2664.31968 53.6803221,2634.24072 33.1830189,2595.91409 C12.654797,2557.52966 1.75,2519.44836 1.75,2414.46155 L1.75,303.538454 C1.75,198.55164 12.654797,160.470344 33.1830189,122.085906 C53.6803221,83.7592815 83.7592815,53.6803221 122.085906,33.1830189 C160.470344,12.654797 198.55164,1.75 303.538454,1.75 Z"/><path stroke="#B1643A" stroke-opacity=".1" d="M303.538454,0.5 L996.461546,0.5 C1101.80236,0.5 1139.99445,11.4858389 1178.50359,32.0807524 C1217.05127,52.6962786 1247.30372,82.9487252 1267.91925,121.496408 C1288.51416,160.005548 1299.5,198.197644 1299.5,303.538454 L1299.5,2414.46155 C1299.5,2519.80236 1288.51416,2557.99445 1267.91925,2596.50359 C1247.30372,2635.05127 1217.05127,2665.30372 1178.50359,2685.91925 C1139.99445,2706.51416 1101.80236,2717.5 996.461546,2717.5 L303.538454,2717.5 C198.197644,2717.5 160.005548,2706.51416 121.496408,2685.91925 C82.9487252,2665.30372 52.6962786,2635.05127 32.0807524,2596.50359 C11.4858389,2557.99445 0.5,2519.80236 0.5,2414.46155 L0.5,303.538454 C0.5,198.197644 11.4858389,160.005548 32.0807524,121.496408 C52.6962786,82.9487252 82.9487252,52.6962786 121.496408,32.0807524 C160.005548,11.4858389 198.197644,0.5 303.538454,0.5 Z"/><path stroke="#AE5126" stroke-width=".5" d="M303.538454,0.75 L996.461546,0.75 C1101.73156,0.75 1139.90149,11.7196305 1178.38569,32.3012057 C1216.88916,52.8930873 1247.10691,83.1108365 1267.69879,121.614307 C1288.28037,160.098507 1299.25,198.268443 1299.25,303.538454 L1299.25,2414.46155 C1299.25,2519.73156 1288.28037,2557.90149 1267.69879,2596.38569 C1247.10691,2634.88916 1216.88916,2665.10691 1178.38569,2685.69879 C1139.90149,2706.28037 1101.73156,2717.25 996.461546,2717.25 L303.538454,2717.25 C198.268443,2717.25 160.098507,2706.28037 121.614307,2685.69879 C83.1108365,2665.10691 52.8930873,2634.88916 32.3012057,2596.38569 C11.7196305,2557.90149 0.75,2519.73156 0.75,2414.46155 L0.75,303.538454 C0.75,198.268443 11.7196305,160.098507 32.3012057,121.614307 C52.8930873,83.1108365 83.1108365,52.8930873 121.614307,32.3012057 C160.098507,11.7196305 198.268443,0.75 303.538454,0.75 Z"/><path stroke="#AE4D20" stroke-linejoin="square" d="M303.538454,1.5 L996.461546,1.5 C1101.51916,1.5 1139.62262,12.4210053 1178.03199,32.9625656 C1216.40283,53.4835134 1246.51649,83.5971702 1267.03743,121.968006 C1287.57899,160.377385 1298.5,198.480841 1298.5,303.538454 L1298.5,2414.46155 C1298.5,2519.51916 1287.57899,2557.62262 1267.03743,2596.03199 C1246.51649,2634.40283 1216.40283,2664.51649 1178.03199,2685.03743 C1139.62262,2705.57899 1101.51916,2716.5 996.461546,2716.5 L303.538454,2716.5 C198.480841,2716.5 160.377385,2705.57899 121.968006,2685.03743 C83.5971702,2664.51649 53.4835134,2634.40283 32.9625656,2596.03199 C12.4210053,2557.62262 1.5,2519.51916 1.5,2414.46155 L1.5,303.538454 C1.5,198.480841 12.4210053,160.377385 32.9625656,121.968006 C53.4835134,83.5971702 83.5971702,53.4835134 121.968006,32.9625656 C160.377385,12.4210053 198.480841,1.5 303.538454,1.5 Z"/><path stroke="url(#c)" stroke-linejoin="square" stroke-width="14" d="M303.538454,8 L996.461546,8 C1099.67838,8 1137.20568,18.4995874 1174.9666,38.6943514 C1212.18794,58.60054 1241.39946,87.8120626 1261.30565,125.033399 C1281.50041,162.794325 1292,200.321623 1292,303.538454 L1292,2414.46155 C1292,2517.67838 1281.50041,2555.20568 1261.30565,2592.9666 C1241.39946,2630.18794 1212.18794,2659.39946 1174.9666,2679.30565 C1137.20568,2699.50041 1099.67838,2710 996.461546,2710 L303.538454,2710 C200.321623,2710 162.794325,2699.50041 125.033399,2679.30565 C87.8120626,2659.39946 58.60054,2630.18794 38.6943514,2592.9666 C18.4995874,2555.20568 8,2517.67838 8,2414.46155 L8,303.538454 C8,200.321623 18.4995874,162.794325 38.6943514,125.033399 C58.60054,87.8120626 87.8120626,58.60054 125.033399,38.6943514 C162.794325,18.4995874 200.321623,8 303.538454,8 Z"/></g><g mask="url(#b)"><use xlink:href="#d" fill="url(#e)"/><use xlink:href="#d" fill="#000" filter="url(#f)"/></g><g mask="url(#b)"><use xlink:href="#g" fill="url(#h)"/><use xlink:href="#g" fill="#000" filter="url(#i)"/></g><g mask="url(#b)"><use xlink:href="#j" fill="url(#h)"/><use xlink:href="#j" fill="#000" filter="url(#k)"/></g><g mask="url(#b)"><use xlink:href="#l" fill="url(#e)"/><use xlink:href="#l" fill="#000" filter="url(#m)"/></g><g stroke-linejoin="square" mask="url(#b)"><path fill="#020300" stroke="#49200D" stroke-width="2" d="M1006.66428,20 C1101.77359,20 1136.27658,29.8675069 1171.05089,48.4650125 C1205.74812,67.0212931 1232.97871,94.2518806 1251.53499,128.949109 C1270.13249,163.723421 1280,198.226408 1280,293.335716 L1280,2424.66428 C1280,2519.77359 1270.13249,2554.27658 1251.53499,2589.05089 C1232.97871,2623.74812 1205.74812,2650.97871 1171.05089,2669.53499 C1136.27658,2688.13249 1101.77359,2698 1006.66428,2698 L293.335716,2698 C198.226408,2698 163.723421,2688.13249 128.949109,2669.53499 C94.2518806,2650.97871 67.0212931,2623.74812 48.4650125,2589.05089 C29.8675069,2554.27658 20,2519.77359 20,2424.66428 L20,293.335716 C20,198.226408 29.8675069,163.723421 48.4650125,128.949109 C67.0212931,94.2518806 94.2518806,67.0212931 128.949109,48.4650125 C163.723421,29.8675069 198.226408,20 293.335716,20 Z"/><path stroke="#5A2408" d="M293.335716,19.5 L1006.66428,19.5 C1101.91519,19.5 1136.4625,29.3999236 1171.28669,48.0241059 C1206.07234,66.6276756 1233.37232,93.9276581 1251.97589,128.713309 C1270.60008,163.537502 1280.5,198.08481 1280.5,293.335716 L1280.5,2424.66428 C1280.5,2519.91519 1270.60008,2554.4625 1251.97589,2589.28669 C1233.37232,2624.07234 1206.07234,2651.37232 1171.28669,2669.97589 C1136.4625,2688.60008 1101.91519,2698.5 1006.66428,2698.5 L293.335716,2698.5 C198.08481,2698.5 163.537502,2688.60008 128.713309,2669.97589 C93.9276581,2651.37232 66.6276756,2624.07234 48.0241059,2589.28669 C29.3999236,2554.4625 19.5,2519.91519 19.5,2424.66428 L19.5,293.335716 C19.5,198.08481 29.3999236,163.537502 48.0241059,128.713309 C66.6276756,93.9276581 93.9276581,66.6276756 128.713309,48.0241059 C163.537502,29.3999236 198.08481,19.5 293.335716,19.5 Z"/></g><g stroke-linejoin="square" mask="url(#b)"><path fill="#000" stroke="#1E1D1D" stroke-width="5" d="M297.899602,23.5 L402,23.5 C404.003051,23.5 407.621037,25.3769072 412.912893,28.6864708 C415.853481,30.5249626 419.25163,31.4998823 422.719727,31.5 L430,31.5 L870,31.5 L877.280358,31.5 C880.748651,31.4998823 884.147047,30.5248086 887.086609,28.6856572 C892.378786,25.3768961 895.996897,23.5 898,23.5 L1002.1004,23.5 C1097.67643,23.5 1132.36974,33.3630822 1167.32034,52.054865 C1202.07822,70.6435852 1229.35641,97.9217765 1247.94513,132.679661 C1266.63692,167.630256 1276.5,202.323571 1276.5,297.899602 L1276.5,2420.1004 C1276.5,2515.67643 1266.63692,2550.36974 1247.94513,2585.32034 C1229.35641,2620.07822 1202.07822,2647.35641 1167.32034,2665.94513 C1132.36974,2684.63692 1097.67643,2694.5 1002.1004,2694.5 L297.899602,2694.5 C202.323571,2694.5 167.630256,2684.63692 132.679661,2665.94513 C97.9217765,2647.35641 70.6435852,2620.07822 52.054865,2585.32034 C33.3630822,2550.36974 23.5,2515.67643 23.5,2420.1004 L23.5,297.899602 C23.5,202.323571 33.3630822,167.630256 52.054865,132.679661 C70.6435852,97.9217765 97.9217765,70.6435852 132.679661,52.054865 C167.630256,33.3630822 202.323571,23.5 297.899602,23.5 Z"/><path stroke="#2E2E2B" stroke-width="4" d="M297.899602,23 L402,23 C404.047297,23 407.757601,24.8725837 413.177957,28.2625121 C416.039069,30.0513149 419.345377,30.9998855 422.719727,31 L430,31 L870,31 L877.280341,31 C880.654848,30.9998855 883.961353,30.0511918 886.821543,28.2616995 C892.242258,24.8725748 895.952661,23 898,23 L1002.1004,23 C1097.81803,23 1132.55566,32.8954989 1167.55614,51.6139584 C1202.40245,70.2499677 1229.75003,97.597554 1248.38604,132.443862 C1267.1045,167.444338 1277,202.181972 1277,297.899602 L1277,2420.1004 C1277,2515.81803 1267.1045,2550.55566 1248.38604,2585.55614 C1229.75003,2620.40245 1202.40245,2647.75003 1167.55614,2666.38604 C1132.55566,2685.1045 1097.81803,2695 1002.1004,2695 L297.899602,2695 C202.181972,2695 167.444338,2685.1045 132.443862,2666.38604 C97.597554,2647.75003 70.2499677,2620.40245 51.6139584,2585.55614 C32.8954989,2550.55566 23,2515.81803 23,2420.1004 L23,297.899602 C23,202.181972 32.8954989,167.444338 51.6139584,132.443862 C70.2499677,97.597554 97.597554,70.2499677 132.443862,51.6139584 C167.444338,32.8954989 202.181972,23 297.899602,23 Z"/><path stroke="#433934" stroke-width="3" d="M297.899602,22.5 L402,22.5 C404.091544,22.5 407.894165,24.3682601 413.443022,27.8385535 C416.224658,29.5776673 419.439124,30.4998886 422.719727,30.5 L430,30.5 L870,30.5 L877.280324,30.5 C880.561045,30.4998886 883.775658,29.5775749 886.556477,27.8377417 C892.105729,24.3682534 895.908425,22.5 898,22.5 L1002.1004,22.5 C1097.95963,22.5 1132.74158,32.4279157 1167.79194,51.1730518 C1202.72667,69.8563503 1230.14365,97.2733315 1248.82695,132.208062 C1267.57208,167.258419 1277.5,202.040374 1277.5,297.899602 L1277.5,2420.1004 C1277.5,2515.95963 1267.57208,2550.74158 1248.82695,2585.79194 C1230.14365,2620.72667 1202.72667,2648.14365 1167.79194,2666.82695 C1132.74158,2685.57208 1097.95963,2695.5 1002.1004,2695.5 L297.899602,2695.5 C202.040374,2695.5 167.258419,2685.57208 132.208062,2666.82695 C97.2733315,2648.14365 69.8563503,2620.72667 51.1730518,2585.79194 C32.4279157,2550.74158 22.5,2515.95963 22.5,2420.1004 L22.5,297.899602 C22.5,202.040374 32.4279157,167.258419 51.1730518,132.208062 C69.8563503,97.2733315 97.2733315,69.8563503 132.208062,51.1730518 C167.258419,32.4279157 202.040374,22.5 297.899602,22.5 Z"/><path stroke="#453832" stroke-width="2" d="M297.899602,22 L402,22 C404.135791,22 408.030729,23.8639366 413.708086,27.4145948 C416.410247,29.1040197 419.532871,29.9998918 422.719727,30 L430,30 L870,30 L877.280307,30 C880.467242,29.9998918 883.589964,29.1039581 886.291411,27.413784 C891.9692,23.8639321 895.864188,22 898,22 L1002.1004,22 C1098.10123,22 1132.9275,31.9603325 1168.02774,50.7321452 C1203.05089,69.4627329 1230.53727,96.949109 1249.26785,131.972263 C1268.03967,167.072501 1278,201.898775 1278,297.899602 L1278,2420.1004 C1278,2516.10123 1268.03967,2550.9275 1249.26785,2586.02774 C1230.53727,2621.05089 1203.05089,2648.53727 1168.02774,2667.26785 C1132.9275,2686.03967 1098.10123,2696 1002.1004,2696 L297.899602,2696 C201.898775,2696 167.072501,2686.03967 131.972263,2667.26785 C96.949109,2648.53727 69.4627329,2621.05089 50.7321452,2586.02774 C31.9603325,2550.9275 22,2516.10123 22,2420.1004 L22,297.899602 C22,201.898775 31.9603325,167.072501 50.7321452,131.972263 C69.4627329,96.949109 96.949109,69.4627329 131.972263,50.7321452 C167.072501,31.9603325 201.898775,22 297.899602,22 Z"/><path stroke="#4A2A1E" d="M297.899602,21.5 L402,21.5 C404.180037,21.5 408.167293,23.359613 413.97315,26.9906361 C416.595836,28.630372 419.626618,29.499895 422.719727,29.5 L430,29.5 L870,29.5 L877.28029,29.5 C880.373438,29.499895 883.404269,28.6303412 886.026346,26.9898262 C891.832671,23.3596108 895.819952,21.5 898,21.5 L1002.1004,21.5 C1098.24282,21.5 1133.11342,31.4927492 1168.26354,50.2912386 C1203.37511,69.0691154 1230.93088,96.6248865 1249.70876,131.736463 C1268.50725,166.886582 1278.5,201.757176 1278.5,297.899602 L1278.5,2420.1004 C1278.5,2516.24282 1268.50725,2551.11342 1249.70876,2586.26354 C1230.93088,2621.37511 1203.37511,2648.93088 1168.26354,2667.70876 C1133.11342,2686.50725 1098.24282,2696.5 1002.1004,2696.5 L297.899602,2696.5 C201.757176,2696.5 166.886582,2686.50725 131.736463,2667.70876 C96.6248865,2648.93088 69.0691154,2621.37511 50.2912386,2586.26354 C31.4927492,2551.11342 21.5,2516.24282 21.5,2420.1004 L21.5,297.899602 C21.5,201.757176 31.4927492,166.886582 50.2912386,131.736463 C69.0691154,96.6248865 96.6248865,69.0691154 131.736463,50.2912386 C166.886582,31.4927492 201.757176,21.5 297.899602,21.5 Z"/></g></g><g transform="matrix(-1 0 0 1 10 0)"><use xlink:href="#n" fill="#F1935B"/><use xlink:href="#n" fill="#000" filter="url(#o)"/></g><g transform="matrix(-1 0 0 1 10 0)"><use xlink:href="#p" fill="#F1935B"/><use xlink:href="#p" fill="#000" filter="url(#q)"/></g><g transform="matrix(-1 0 0 1 10 0)"><use xlink:href="#r" fill="#F1935B"/><use xlink:href="#r" fill="#000" filter="url(#s)"/></g><use xlink:href="#t" fill="#F1935B"/><use xlink:href="#t" fill="#000" filter="url(#u)"/><g transform="translate(470 87)"><path fill="#000" d="M55,0 L323,0 C353.375661,-7.10542736e-15 378,24.6243388 378,55 C378,85.3756612 353.375661,110 323,110 L55,110 C24.6243388,110 0,85.3756612 0,55 C-7.10542736e-15,24.6243388 24.6243388,7.10542736e-15 55,0 Z"/><path fill="#000" stroke="#000" stroke-width="25" d="M183 13.5C194.459909 13.5 204.834909 18.1450457 212.344931 25.6550686 219.854954 33.1650914 224.5 43.5400914 224.5 55 224.5 66.4599086 219.854954 76.8349086 212.344931 84.3449314 204.834909 91.8549543 194.459909 96.5 183 96.5L55 96.5C43.5400914 96.5 33.1650914 91.8549543 25.6550686 84.3449314 18.1450457 76.8349086 13.5 66.4599086 13.5 55 13.5 43.5400914 18.1450457 33.1650914 25.6550686 25.6550686 33.1650914 18.1450457 43.5400914 13.5 55 13.5ZM323 13.5C334.459909 13.5 344.834909 18.1450457 352.344931 25.6550686 359.854954 33.1650914 364.5 43.5400914 364.5 55 364.5 66.4599086 359.854954 76.8349086 352.344931 84.3449314 344.834909 91.8549543 334.459909 96.5 323 96.5 311.540091 96.5 301.165091 91.8549543 293.655069 84.3449314 286.145046 76.8349086 281.5 66.4599086 281.5 55 281.5 43.5400914 286.145046 33.1650914 293.655069 25.6550686 301.165091 18.1450457 311.540091 13.5 323 13.5Z"/><g transform="translate(307 39)"><use xlink:href="#v" fill="#000" filter="url(#w)"/><use xlink:href="#v" fill="#050614"/><use xlink:href="#v" fill="url(#x)"/><use xlink:href="#v" fill="#000" filter="url(#y)"/><use xlink:href="#z" fill="url(#A)"/><use xlink:href="#z" fill="url(#B)"/><use xlink:href="#z" fill="url(#C)"/><use xlink:href="#z" fill="#000" filter="url(#D)"/></g></g></g></svg>