<svg xmlns="http://www.w3.org/2000/svg" xmlns:xlink="http://www.w3.org/1999/xlink" width="1520" height="3068" viewBox="0 0 1520 3068"><defs><filter id="f" width="120%" height="114.3%" x="-10%" y="-7.1%" filterUnits="objectBoundingBox"><feGaussianBlur in="SourceAlpha" result="shadowBlurInner1" stdDeviation="1"/><feOffset dy="-2" in="shadowBlurInner1" result="shadowOffsetInner1"/><feComposite in="shadowOffsetInner1" in2="SourceAlpha" k2="-1" k3="1" operator="arithmetic" result="shadowInnerInner1"/><feColorMatrix in="shadowInnerInner1" result="shadowMatrixInner1" values="0 0 0 0 1 0 0 0 0 1 0 0 0 0 1 0 0 0 0.25 0"/><feGaussianBlur in="SourceAlpha" result="shadowBlurInner2" stdDeviation="1"/><feOffset dy="2" in="shadowBlurInner2" result="shadowOffsetInner2"/><feComposite in="shadowOffsetInner2" in2="SourceAlpha" k2="-1" k3="1" operator="arithmetic" result="shadowInnerInner2"/><feColorMatrix in="shadowInnerInner2" result="shadowMatrixInner2" values="0 0 0 0 1 0 0 0 0 1 0 0 0 0 1 0 0 0 0.25 0"/><feMerge><feMergeNode in="shadowMatrixInner1"/><feMergeNode in="shadowMatrixInner2"/></feMerge></filter><filter id="h" width="120%" height="114.3%" x="-10%" y="-7.1%" filterUnits="objectBoundingBox"><feGaussianBlur in="SourceAlpha" result="shadowBlurInner1" stdDeviation="1"/><feOffset dy="-2" in="shadowBlurInner1" result="shadowOffsetInner1"/><feComposite in="shadowOffsetInner1" in2="SourceAlpha" k2="-1" k3="1" operator="arithmetic" result="shadowInnerInner1"/><feColorMatrix in="shadowInnerInner1" result="shadowMatrixInner1" values="0 0 0 0 1 0 0 0 0 1 0 0 0 0 1 0 0 0 0.25 0"/><feGaussianBlur in="SourceAlpha" result="shadowBlurInner2" stdDeviation="1"/><feOffset dy="2" in="shadowBlurInner2" result="shadowOffsetInner2"/><feComposite in="shadowOffsetInner2" in2="SourceAlpha" k2="-1" k3="1" operator="arithmetic" result="shadowInnerInner2"/><feColorMatrix in="shadowInnerInner2" result="shadowMatrixInner2" values="0 0 0 0 1 0 0 0 0 1 0 0 0 0 1 0 0 0 0.25 0"/><feMerge><feMergeNode in="shadowMatrixInner1"/><feMergeNode in="shadowMatrixInner2"/></feMerge></filter><filter id="j" width="120%" height="114.3%" x="-10%" y="-7.1%" filterUnits="objectBoundingBox"><feGaussianBlur in="SourceAlpha" result="shadowBlurInner1" stdDeviation="1"/><feOffset dy="-2" in="shadowBlurInner1" result="shadowOffsetInner1"/><feComposite in="shadowOffsetInner1" in2="SourceAlpha" k2="-1" k3="1" operator="arithmetic" result="shadowInnerInner1"/><feColorMatrix in="shadowInnerInner1" result="shadowMatrixInner1" values="0 0 0 0 1 0 0 0 0 1 0 0 0 0 1 0 0 0 0.25 0"/><feGaussianBlur in="SourceAlpha" result="shadowBlurInner2" stdDeviation="1"/><feOffset dy="2" in="shadowBlurInner2" result="shadowOffsetInner2"/><feComposite in="shadowOffsetInner2" in2="SourceAlpha" k2="-1" k3="1" operator="arithmetic" result="shadowInnerInner2"/><feColorMatrix in="shadowInnerInner2" result="shadowMatrixInner2" values="0 0 0 0 1 0 0 0 0 1 0 0 0 0 1 0 0 0 0.25 0"/><feMerge><feMergeNode in="shadowMatrixInner1"/><feMergeNode in="shadowMatrixInner2"/></feMerge></filter><filter id="l" width="120%" height="114.3%" x="-10%" y="-7.1%" filterUnits="objectBoundingBox"><feGaussianBlur in="SourceAlpha" result="shadowBlurInner1" stdDeviation="1"/><feOffset dy="-2" in="shadowBlurInner1" result="shadowOffsetInner1"/><feComposite in="shadowOffsetInner1" in2="SourceAlpha" k2="-1" k3="1" operator="arithmetic" result="shadowInnerInner1"/><feColorMatrix in="shadowInnerInner1" result="shadowMatrixInner1" values="0 0 0 0 1 0 0 0 0 1 0 0 0 0 1 0 0 0 0.25 0"/><feGaussianBlur in="SourceAlpha" result="shadowBlurInner2" stdDeviation="1"/><feOffset dy="2" in="shadowBlurInner2" result="shadowOffsetInner2"/><feComposite in="shadowOffsetInner2" in2="SourceAlpha" k2="-1" k3="1" operator="arithmetic" result="shadowInnerInner2"/><feColorMatrix in="shadowInnerInner2" result="shadowMatrixInner2" values="0 0 0 0 1 0 0 0 0 1 0 0 0 0 1 0 0 0 0.25 0"/><feMerge><feMergeNode in="shadowMatrixInner1"/><feMergeNode in="shadowMatrixInner2"/></feMerge></filter><filter id="n" width="380%" height="114%" x="-140%" y="-7%" filterUnits="objectBoundingBox"><feGaussianBlur in="SourceAlpha" result="shadowBlurInner1" stdDeviation="4"/><feOffset dy="-20" in="shadowBlurInner1" result="shadowOffsetInner1"/><feComposite in="shadowOffsetInner1" in2="SourceAlpha" k2="-1" k3="1" operator="arithmetic" result="shadowInnerInner1"/><feColorMatrix in="shadowInnerInner1" result="shadowMatrixInner1" values="0 0 0 0 0.831228824 0 0 0 0 0.839339676 0 0 0 0 0.901522871 0 0 0 1 0"/><feGaussianBlur in="SourceAlpha" result="shadowBlurInner2" stdDeviation="3"/><feOffset dy="-9" in="shadowBlurInner2" result="shadowOffsetInner2"/><feComposite in="shadowOffsetInner2" in2="SourceAlpha" k2="-1" k3="1" operator="arithmetic" result="shadowInnerInner2"/><feColorMatrix in="shadowInnerInner2" result="shadowMatrixInner2" values="0 0 0 0 0.454901961 0 0 0 0 0.470588235 0 0 0 0 0.556862745 0 0 0 1 0"/><feGaussianBlur in="SourceAlpha" result="shadowBlurInner3" stdDeviation="1"/><feOffset dx="4" in="shadowBlurInner3" result="shadowOffsetInner3"/><feComposite in="shadowOffsetInner3" in2="SourceAlpha" k2="-1" k3="1" operator="arithmetic" result="shadowInnerInner3"/><feColorMatrix in="shadowInnerInner3" result="shadowMatrixInner3" values="0 0 0 0 0.125490196 0 0 0 0 0.145098039 0 0 0 0 0.196078431 0 0 0 1 0"/><feMorphology in="SourceAlpha" operator="dilate" radius="6" result="shadowSpreadInner4"/><feGaussianBlur in="shadowSpreadInner4" result="shadowBlurInner4" stdDeviation="4"/><feOffset dy="24" in="shadowBlurInner4" result="shadowOffsetInner4"/><feComposite in="shadowOffsetInner4" in2="SourceAlpha" k2="-1" k3="1" operator="arithmetic" result="shadowInnerInner4"/><feColorMatrix in="shadowInnerInner4" result="shadowMatrixInner4" values="0 0 0 0 0.992156863 0 0 0 0 1 0 0 0 0 1 0 0 0 1 0"/><feMorphology in="SourceAlpha" operator="dilate" radius="2" result="shadowSpreadInner5"/><feGaussianBlur in="shadowSpreadInner5" result="shadowBlurInner5" stdDeviation="2"/><feOffset dy="8" in="shadowBlurInner5" result="shadowOffsetInner5"/><feComposite in="shadowOffsetInner5" in2="SourceAlpha" k2="-1" k3="1" operator="arithmetic" result="shadowInnerInner5"/><feColorMatrix in="shadowInnerInner5" result="shadowMatrixInner5" values="0 0 0 0 0.168627451 0 0 0 0 0.17254902 0 0 0 0 0.223529412 0 0 0 1 0"/><feGaussianBlur in="SourceAlpha" result="shadowBlurInner6" stdDeviation="1"/><feOffset dy="-2" in="shadowBlurInner6" result="shadowOffsetInner6"/><feComposite in="shadowOffsetInner6" in2="SourceAlpha" k2="-1" k3="1" operator="arithmetic" result="shadowInnerInner6"/><feColorMatrix in="shadowInnerInner6" result="shadowMatrixInner6" values="0 0 0 0 0.160784314 0 0 0 0 0.180392157 0 0 0 0 0.231372549 0 0 0 1 0"/><feGaussianBlur in="SourceAlpha" result="shadowBlurInner7" stdDeviation="1"/><feOffset dx="-2" in="shadowBlurInner7" result="shadowOffsetInner7"/><feComposite in="shadowOffsetInner7" in2="SourceAlpha" k2="-1" k3="1" operator="arithmetic" result="shadowInnerInner7"/><feColorMatrix in="shadowInnerInner7" result="shadowMatrixInner7" values="0 0 0 0 0.75406712 0 0 0 0 0.765020251 0 0 0 0 0.796054121 0 0 0 1 0"/><feGaussianBlur in="SourceAlpha" result="shadowBlurInner8" stdDeviation="1"/><feOffset dx="-1" in="shadowBlurInner8" result="shadowOffsetInner8"/><feComposite in="shadowOffsetInner8" in2="SourceAlpha" k2="-1" k3="1" operator="arithmetic" result="shadowInnerInner8"/><feColorMatrix in="shadowInnerInner8" result="shadowMatrixInner8" values="0 0 0 0 0.976470588 0 0 0 0 0.984313725 0 0 0 0 1 0 0 0 0.25 0"/><feMerge><feMergeNode in="shadowMatrixInner1"/><feMergeNode in="shadowMatrixInner2"/><feMergeNode in="shadowMatrixInner3"/><feMergeNode in="shadowMatrixInner4"/><feMergeNode in="shadowMatrixInner5"/><feMergeNode in="shadowMatrixInner6"/><feMergeNode in="shadowMatrixInner7"/><feMergeNode in="shadowMatrixInner8"/></feMerge></filter><filter id="p" width="380%" height="114%" x="-140%" y="-7%" filterUnits="objectBoundingBox"><feGaussianBlur in="SourceAlpha" result="shadowBlurInner1" stdDeviation="4"/><feOffset dy="-20" in="shadowBlurInner1" result="shadowOffsetInner1"/><feComposite in="shadowOffsetInner1" in2="SourceAlpha" k2="-1" k3="1" operator="arithmetic" result="shadowInnerInner1"/><feColorMatrix in="shadowInnerInner1" result="shadowMatrixInner1" values="0 0 0 0 0.831228824 0 0 0 0 0.839339676 0 0 0 0 0.901522871 0 0 0 1 0"/><feGaussianBlur in="SourceAlpha" result="shadowBlurInner2" stdDeviation="3"/><feOffset dy="-9" in="shadowBlurInner2" result="shadowOffsetInner2"/><feComposite in="shadowOffsetInner2" in2="SourceAlpha" k2="-1" k3="1" operator="arithmetic" result="shadowInnerInner2"/><feColorMatrix in="shadowInnerInner2" result="shadowMatrixInner2" values="0 0 0 0 0.454901961 0 0 0 0 0.470588235 0 0 0 0 0.556862745 0 0 0 1 0"/><feGaussianBlur in="SourceAlpha" result="shadowBlurInner3" stdDeviation="1"/><feOffset dx="4" in="shadowBlurInner3" result="shadowOffsetInner3"/><feComposite in="shadowOffsetInner3" in2="SourceAlpha" k2="-1" k3="1" operator="arithmetic" result="shadowInnerInner3"/><feColorMatrix in="shadowInnerInner3" result="shadowMatrixInner3" values="0 0 0 0 0.125490196 0 0 0 0 0.145098039 0 0 0 0 0.196078431 0 0 0 1 0"/><feMorphology in="SourceAlpha" operator="dilate" radius="6" result="shadowSpreadInner4"/><feGaussianBlur in="shadowSpreadInner4" result="shadowBlurInner4" stdDeviation="4"/><feOffset dy="24" in="shadowBlurInner4" result="shadowOffsetInner4"/><feComposite in="shadowOffsetInner4" in2="SourceAlpha" k2="-1" k3="1" operator="arithmetic" result="shadowInnerInner4"/><feColorMatrix in="shadowInnerInner4" result="shadowMatrixInner4" values="0 0 0 0 0.992156863 0 0 0 0 1 0 0 0 0 1 0 0 0 1 0"/><feMorphology in="SourceAlpha" operator="dilate" radius="2" result="shadowSpreadInner5"/><feGaussianBlur in="shadowSpreadInner5" result="shadowBlurInner5" stdDeviation="2"/><feOffset dy="8" in="shadowBlurInner5" result="shadowOffsetInner5"/><feComposite in="shadowOffsetInner5" in2="SourceAlpha" k2="-1" k3="1" operator="arithmetic" result="shadowInnerInner5"/><feColorMatrix in="shadowInnerInner5" result="shadowMatrixInner5" values="0 0 0 0 0.168627451 0 0 0 0 0.17254902 0 0 0 0 0.223529412 0 0 0 1 0"/><feGaussianBlur in="SourceAlpha" result="shadowBlurInner6" stdDeviation="1"/><feOffset dy="-2" in="shadowBlurInner6" result="shadowOffsetInner6"/><feComposite in="shadowOffsetInner6" in2="SourceAlpha" k2="-1" k3="1" operator="arithmetic" result="shadowInnerInner6"/><feColorMatrix in="shadowInnerInner6" result="shadowMatrixInner6" values="0 0 0 0 0.160784314 0 0 0 0 0.180392157 0 0 0 0 0.231372549 0 0 0 1 0"/><feGaussianBlur in="SourceAlpha" result="shadowBlurInner7" stdDeviation="1"/><feOffset dx="-2" in="shadowBlurInner7" result="shadowOffsetInner7"/><feComposite in="shadowOffsetInner7" in2="SourceAlpha" k2="-1" k3="1" operator="arithmetic" result="shadowInnerInner7"/><feColorMatrix in="shadowInnerInner7" result="shadowMatrixInner7" values="0 0 0 0 0.75406712 0 0 0 0 0.765020251 0 0 0 0 0.796054121 0 0 0 1 0"/><feGaussianBlur in="SourceAlpha" result="shadowBlurInner8" stdDeviation="1"/><feOffset dx="-1" in="shadowBlurInner8" result="shadowOffsetInner8"/><feComposite in="shadowOffsetInner8" in2="SourceAlpha" k2="-1" k3="1" operator="arithmetic" result="shadowInnerInner8"/><feColorMatrix in="shadowInnerInner8" result="shadowMatrixInner8" values="0 0 0 0 0.976470588 0 0 0 0 0.984313725 0 0 0 0 1 0 0 0 0.25 0"/><feMerge><feMergeNode in="shadowMatrixInner1"/><feMergeNode in="shadowMatrixInner2"/><feMergeNode in="shadowMatrixInner3"/><feMergeNode in="shadowMatrixInner4"/><feMergeNode in="shadowMatrixInner5"/><feMergeNode in="shadowMatrixInner6"/><feMergeNode in="shadowMatrixInner7"/><feMergeNode in="shadowMatrixInner8"/></feMerge></filter><filter id="r" width="380%" height="123.1%" x="-140%" y="-11.6%" filterUnits="objectBoundingBox"><feGaussianBlur in="SourceAlpha" result="shadowBlurInner1" stdDeviation="4"/><feOffset dy="-20" in="shadowBlurInner1" result="shadowOffsetInner1"/><feComposite in="shadowOffsetInner1" in2="SourceAlpha" k2="-1" k3="1" operator="arithmetic" result="shadowInnerInner1"/><feColorMatrix in="shadowInnerInner1" result="shadowMatrixInner1" values="0 0 0 0 0.831228824 0 0 0 0 0.839339676 0 0 0 0 0.901522871 0 0 0 1 0"/><feGaussianBlur in="SourceAlpha" result="shadowBlurInner2" stdDeviation="3"/><feOffset dy="-9" in="shadowBlurInner2" result="shadowOffsetInner2"/><feComposite in="shadowOffsetInner2" in2="SourceAlpha" k2="-1" k3="1" operator="arithmetic" result="shadowInnerInner2"/><feColorMatrix in="shadowInnerInner2" result="shadowMatrixInner2" values="0 0 0 0 0.454901961 0 0 0 0 0.470588235 0 0 0 0 0.556862745 0 0 0 1 0"/><feGaussianBlur in="SourceAlpha" result="shadowBlurInner3" stdDeviation="1"/><feOffset dx="4" in="shadowBlurInner3" result="shadowOffsetInner3"/><feComposite in="shadowOffsetInner3" in2="SourceAlpha" k2="-1" k3="1" operator="arithmetic" result="shadowInnerInner3"/><feColorMatrix in="shadowInnerInner3" result="shadowMatrixInner3" values="0 0 0 0 0.125490196 0 0 0 0 0.145098039 0 0 0 0 0.196078431 0 0 0 1 0"/><feMorphology in="SourceAlpha" operator="dilate" radius="6" result="shadowSpreadInner4"/><feGaussianBlur in="shadowSpreadInner4" result="shadowBlurInner4" stdDeviation="4"/><feOffset dy="24" in="shadowBlurInner4" result="shadowOffsetInner4"/><feComposite in="shadowOffsetInner4" in2="SourceAlpha" k2="-1" k3="1" operator="arithmetic" result="shadowInnerInner4"/><feColorMatrix in="shadowInnerInner4" result="shadowMatrixInner4" values="0 0 0 0 0.992156863 0 0 0 0 1 0 0 0 0 1 0 0 0 1 0"/><feMorphology in="SourceAlpha" operator="dilate" radius="2" result="shadowSpreadInner5"/><feGaussianBlur in="shadowSpreadInner5" result="shadowBlurInner5" stdDeviation="2"/><feOffset dy="8" in="shadowBlurInner5" result="shadowOffsetInner5"/><feComposite in="shadowOffsetInner5" in2="SourceAlpha" k2="-1" k3="1" operator="arithmetic" result="shadowInnerInner5"/><feColorMatrix in="shadowInnerInner5" result="shadowMatrixInner5" values="0 0 0 0 0.168627451 0 0 0 0 0.17254902 0 0 0 0 0.223529412 0 0 0 1 0"/><feGaussianBlur in="SourceAlpha" result="shadowBlurInner6" stdDeviation="1"/><feOffset dy="-2" in="shadowBlurInner6" result="shadowOffsetInner6"/><feComposite in="shadowOffsetInner6" in2="SourceAlpha" k2="-1" k3="1" operator="arithmetic" result="shadowInnerInner6"/><feColorMatrix in="shadowInnerInner6" result="shadowMatrixInner6" values="0 0 0 0 0.160784314 0 0 0 0 0.180392157 0 0 0 0 0.231372549 0 0 0 1 0"/><feGaussianBlur in="SourceAlpha" result="shadowBlurInner7" stdDeviation="1"/><feOffset dx="-2" in="shadowBlurInner7" result="shadowOffsetInner7"/><feComposite in="shadowOffsetInner7" in2="SourceAlpha" k2="-1" k3="1" operator="arithmetic" result="shadowInnerInner7"/><feColorMatrix in="shadowInnerInner7" result="shadowMatrixInner7" values="0 0 0 0 0.75406712 0 0 0 0 0.765020251 0 0 0 0 0.796054121 0 0 0 1 0"/><feGaussianBlur in="SourceAlpha" result="shadowBlurInner8" stdDeviation="1"/><feOffset dx="-1" in="shadowBlurInner8" result="shadowOffsetInner8"/><feComposite in="shadowOffsetInner8" in2="SourceAlpha" k2="-1" k3="1" operator="arithmetic" result="shadowInnerInner8"/><feColorMatrix in="shadowInnerInner8" result="shadowMatrixInner8" values="0 0 0 0 0.976470588 0 0 0 0 0.984313725 0 0 0 0 1 0 0 0 0.25 0"/><feMerge><feMergeNode in="shadowMatrixInner1"/><feMergeNode in="shadowMatrixInner2"/><feMergeNode in="shadowMatrixInner3"/><feMergeNode in="shadowMatrixInner4"/><feMergeNode in="shadowMatrixInner5"/><feMergeNode in="shadowMatrixInner6"/><feMergeNode in="shadowMatrixInner7"/><feMergeNode in="shadowMatrixInner8"/></feMerge></filter><filter id="t" width="380%" height="108.7%" x="-140%" y="-4.3%" filterUnits="objectBoundingBox"><feGaussianBlur in="SourceAlpha" result="shadowBlurInner1" stdDeviation="4"/><feOffset dy="-20" in="shadowBlurInner1" result="shadowOffsetInner1"/><feComposite in="shadowOffsetInner1" in2="SourceAlpha" k2="-1" k3="1" operator="arithmetic" result="shadowInnerInner1"/><feColorMatrix in="shadowInnerInner1" result="shadowMatrixInner1" values="0 0 0 0 0.831228824 0 0 0 0 0.839339676 0 0 0 0 0.901522871 0 0 0 1 0"/><feGaussianBlur in="SourceAlpha" result="shadowBlurInner2" stdDeviation="3"/><feOffset dy="-9" in="shadowBlurInner2" result="shadowOffsetInner2"/><feComposite in="shadowOffsetInner2" in2="SourceAlpha" k2="-1" k3="1" operator="arithmetic" result="shadowInnerInner2"/><feColorMatrix in="shadowInnerInner2" result="shadowMatrixInner2" values="0 0 0 0 0.454901961 0 0 0 0 0.470588235 0 0 0 0 0.556862745 0 0 0 1 0"/><feGaussianBlur in="SourceAlpha" result="shadowBlurInner3" stdDeviation="1"/><feOffset dx="4" in="shadowBlurInner3" result="shadowOffsetInner3"/><feComposite in="shadowOffsetInner3" in2="SourceAlpha" k2="-1" k3="1" operator="arithmetic" result="shadowInnerInner3"/><feColorMatrix in="shadowInnerInner3" result="shadowMatrixInner3" values="0 0 0 0 0.125490196 0 0 0 0 0.145098039 0 0 0 0 0.196078431 0 0 0 1 0"/><feMorphology in="SourceAlpha" operator="dilate" radius="6" result="shadowSpreadInner4"/><feGaussianBlur in="shadowSpreadInner4" result="shadowBlurInner4" stdDeviation="4"/><feOffset dy="24" in="shadowBlurInner4" result="shadowOffsetInner4"/><feComposite in="shadowOffsetInner4" in2="SourceAlpha" k2="-1" k3="1" operator="arithmetic" result="shadowInnerInner4"/><feColorMatrix in="shadowInnerInner4" result="shadowMatrixInner4" values="0 0 0 0 0.992156863 0 0 0 0 1 0 0 0 0 1 0 0 0 1 0"/><feMorphology in="SourceAlpha" operator="dilate" radius="2" result="shadowSpreadInner5"/><feGaussianBlur in="shadowSpreadInner5" result="shadowBlurInner5" stdDeviation="2"/><feOffset dy="8" in="shadowBlurInner5" result="shadowOffsetInner5"/><feComposite in="shadowOffsetInner5" in2="SourceAlpha" k2="-1" k3="1" operator="arithmetic" result="shadowInnerInner5"/><feColorMatrix in="shadowInnerInner5" result="shadowMatrixInner5" values="0 0 0 0 0.168627451 0 0 0 0 0.17254902 0 0 0 0 0.223529412 0 0 0 1 0"/><feGaussianBlur in="SourceAlpha" result="shadowBlurInner6" stdDeviation="1"/><feOffset dy="-2" in="shadowBlurInner6" result="shadowOffsetInner6"/><feComposite in="shadowOffsetInner6" in2="SourceAlpha" k2="-1" k3="1" operator="arithmetic" result="shadowInnerInner6"/><feColorMatrix in="shadowInnerInner6" result="shadowMatrixInner6" values="0 0 0 0 0.160784314 0 0 0 0 0.180392157 0 0 0 0 0.231372549 0 0 0 1 0"/><feGaussianBlur in="SourceAlpha" result="shadowBlurInner7" stdDeviation="1"/><feOffset dx="-2" in="shadowBlurInner7" result="shadowOffsetInner7"/><feComposite in="shadowOffsetInner7" in2="SourceAlpha" k2="-1" k3="1" operator="arithmetic" result="shadowInnerInner7"/><feColorMatrix in="shadowInnerInner7" result="shadowMatrixInner7" values="0 0 0 0 0.75406712 0 0 0 0 0.765020251 0 0 0 0 0.796054121 0 0 0 1 0"/><feGaussianBlur in="SourceAlpha" result="shadowBlurInner8" stdDeviation="1"/><feOffset dx="-1" in="shadowBlurInner8" result="shadowOffsetInner8"/><feComposite in="shadowOffsetInner8" in2="SourceAlpha" k2="-1" k3="1" operator="arithmetic" result="shadowInnerInner8"/><feColorMatrix in="shadowInnerInner8" result="shadowMatrixInner8" values="0 0 0 0 0.976470588 0 0 0 0 0.984313725 0 0 0 0 1 0 0 0 0.25 0"/><feMerge><feMergeNode in="shadowMatrixInner1"/><feMergeNode in="shadowMatrixInner2"/><feMergeNode in="shadowMatrixInner3"/><feMergeNode in="shadowMatrixInner4"/><feMergeNode in="shadowMatrixInner5"/><feMergeNode in="shadowMatrixInner6"/><feMergeNode in="shadowMatrixInner7"/><feMergeNode in="shadowMatrixInner8"/></feMerge></filter><filter id="v" width="184.4%" height="184.4%" x="-42.2%" y="-42.2%" filterUnits="objectBoundingBox"><feOffset in="SourceAlpha" result="shadowOffsetOuter1"/><feGaussianBlur in="shadowOffsetOuter1" result="shadowBlurOuter1" stdDeviation="4.5"/><feColorMatrix in="shadowBlurOuter1" values="0 0 0 0 0.105882353 0 0 0 0 0.0941176471 0 0 0 0 0.180392157 0 0 0 1 0"/></filter><filter id="x" width="184.4%" height="184.4%" x="-42.2%" y="-42.2%" filterUnits="objectBoundingBox"><feGaussianBlur in="SourceAlpha" result="shadowBlurInner1" stdDeviation="4.5"/><feOffset in="shadowBlurInner1" result="shadowOffsetInner1"/><feComposite in="shadowOffsetInner1" in2="SourceAlpha" k2="-1" k3="1" operator="arithmetic" result="shadowInnerInner1"/><feColorMatrix in="shadowInnerInner1" result="shadowMatrixInner1" values="0 0 0 0 0.0392156863 0 0 0 0 0.0392156863 0 0 0 0 0.0901960784 0 0 0 1 0"/><feMorphology in="SourceAlpha" operator="dilate" radius="4" result="shadowSpreadInner2"/><feGaussianBlur in="shadowSpreadInner2" result="shadowBlurInner2" stdDeviation="2"/><feOffset dx="-6" in="shadowBlurInner2" result="shadowOffsetInner2"/><feComposite in="shadowOffsetInner2" in2="SourceAlpha" k2="-1" k3="1" operator="arithmetic" result="shadowInnerInner2"/><feColorMatrix in="shadowInnerInner2" result="shadowMatrixInner2" values="0 0 0 0 0.031372549 0 0 0 0 0.0588235294 0 0 0 0 0.219607843 0 0 0 1 0"/><feMorphology in="SourceAlpha" operator="dilate" radius="4" result="shadowSpreadInner3"/><feGaussianBlur in="shadowSpreadInner3" result="shadowBlurInner3" stdDeviation="2"/><feOffset dy="4" in="shadowBlurInner3" result="shadowOffsetInner3"/><feComposite in="shadowOffsetInner3" in2="SourceAlpha" k2="-1" k3="1" operator="arithmetic" result="shadowInnerInner3"/><feColorMatrix in="shadowInnerInner3" result="shadowMatrixInner3" values="0 0 0 0 0.031372549 0 0 0 0 0.0588235294 0 0 0 0 0.219607843 0 0 0 1 0"/><feMorphology in="SourceAlpha" operator="dilate" radius="4" result="shadowSpreadInner4"/><feGaussianBlur in="shadowSpreadInner4" result="shadowBlurInner4" stdDeviation="2"/><feOffset dx="6" in="shadowBlurInner4" result="shadowOffsetInner4"/><feComposite in="shadowOffsetInner4" in2="SourceAlpha" k2="-1" k3="1" operator="arithmetic" result="shadowInnerInner4"/><feColorMatrix in="shadowInnerInner4" result="shadowMatrixInner4" values="0 0 0 0 0.031372549 0 0 0 0 0.0588235294 0 0 0 0 0.219607843 0 0 0 1 0"/><feMerge><feMergeNode in="shadowMatrixInner1"/><feMergeNode in="shadowMatrixInner2"/><feMergeNode in="shadowMatrixInner3"/><feMergeNode in="shadowMatrixInner4"/></feMerge></filter><filter id="C" width="120.8%" height="120.8%" x="-10.4%" y="-10.4%" filterUnits="objectBoundingBox"><feGaussianBlur in="SourceAlpha" result="shadowBlurInner1" stdDeviation="2"/><feOffset dy="1" in="shadowBlurInner1" result="shadowOffsetInner1"/><feComposite in="shadowOffsetInner1" in2="SourceAlpha" k2="-1" k3="1" operator="arithmetic" result="shadowInnerInner1"/><feColorMatrix in="shadowInnerInner1" values="0 0 0 0 0.0196078431 0 0 0 0 0.0235294118 0 0 0 0 0.0784313725 0 0 0 1 0"/></filter><path id="a" d="M1107.46155,1 C1212.66076,1 1250.80853,11.9534221 1289.26779,32.521659 C1327.72705,53.089896 1357.9101,83.2729477 1378.47834,121.732207 C1399.04658,160.191466 1410,198.339242 1410,303.538454 L1410,2656.46155 C1410,2761.66076 1399.04658,2799.80853 1378.47834,2838.26779 C1357.9101,2876.72705 1327.72705,2906.9101 1289.26779,2927.47834 C1250.80853,2948.04658 1212.66076,2959 1107.46155,2959 L302.538454,2959 C197.339242,2959 159.191466,2948.04658 120.732207,2927.47834 C82.2729477,2906.9101 52.089896,2876.72705 31.521659,2838.26779 C10.9534221,2799.80853 0,2761.66076 0,2656.46155 L1.45093462e-14,303.538454 C-8.430348e-15,198.339242 10.9534221,160.191466 31.521659,121.732207 C52.089896,83.2729477 82.2729477,53.089896 120.732207,32.521659 C159.191466,11.9534221 197.339242,1 302.538454,1 L1107.46155,1 Z M1123.99479,46 L286.005209,46 C202.202447,46 171.813541,54.7256074 141.176504,71.1104742 C110.539467,87.4953409 86.4953409,111.539467 70.1104742,142.176504 C53.7256074,172.813541 45,203.202447 45,287.005209 L45,2672.99479 C45,2756.79755 53.7256074,2787.18646 70.1104742,2817.8235 C86.4953409,2848.46053 110.539467,2872.50466 141.176504,2888.88953 C171.813541,2905.27439 202.202447,2914 286.005209,2914 L1123.99479,2914 C1207.79755,2914 1238.18646,2905.27439 1268.8235,2888.88953 C1299.46053,2872.50466 1323.50466,2848.46053 1339.88953,2817.8235 C1356.27439,2787.18646 1365,2756.79755 1365,2672.99479 L1365,287.005209 C1365,203.202447 1356.27439,172.813541 1339.88953,142.176504 C1323.50466,111.539467 1299.46053,87.4953409 1268.8235,71.1104742 C1238.18646,54.7256074 1207.79755,46 1123.99479,46 Z"/><path id="m" d="M0,776 L6,776 C8.209139,776 10,777.790861 10,780 L10,972 C10,974.209139 8.209139,976 6,976 L0,976 L0,976 L0,776 Z"/><path id="o" d="M0,1032 L6,1032 C8.209139,1032 10,1033.79086 10,1036 L10,1228 C10,1230.20914 8.209139,1232 6,1232 L0,1232 L0,1232 L0,1032 Z"/><path id="q" d="M0,558 L6,558 C8.209139,558 10,559.790861 10,562 L10,675 C10,677.209139 8.209139,679 6,679 L0,679 L0,679 L0,558 Z"/><path id="s" d="M1420,845 L1426,845 C1428.20914,845 1430,846.790861 1430,849 L1430,1163 C1430,1165.20914 1428.20914,1167 1426,1167 L1420,1167 L1420,1167 L1420,845 Z"/><rect id="d" width="20" height="28" x="1390" y="279"/><rect id="g" width="20" height="28" x="0" y="279"/><rect id="i" width="20" height="28" x="0" y="2654"/><rect id="k" width="20" height="28" x="1390" y="2654"/><radialGradient id="z" cx="50%" cy="0%" r="50%" fx="50%" fy="0%"><stop offset="0%" stop-color="#414A67"/><stop offset="40.532%" stop-color="#33366F"/><stop offset="72.266%" stop-color="#18184D"/><stop offset="100%" stop-color="#030517"/></radialGradient><radialGradient id="A" cx="54.402%" cy="80.892%" r="36.116%" fx="54.402%" fy="80.892%" gradientTransform="matrix(.09353 -.99562 1.07278 .10078 -.374 1.27)"><stop offset="0%" stop-color="#1E3A44"/><stop offset="8.663%" stop-color="#1C3A43"/><stop offset="18.325%" stop-color="#0C3943"/><stop offset="32.867%" stop-color="#01313D"/><stop offset="48.872%" stop-color="#002433"/><stop offset="63.68%" stop-color="#001F35" stop-opacity=".4"/><stop offset="100%" stop-color="#02081F" stop-opacity="0"/></radialGradient><radialGradient id="B" cx="50%" cy="96.469%" r="24.982%" fx="50%" fy="96.469%" gradientTransform="matrix(0 1 -3.2196 0 3.606 .465)"><stop offset="0%" stop-color="#340F54"/><stop offset="25.286%" stop-color="#340F54" stop-opacity=".6"/><stop offset="50.265%" stop-color="#071280" stop-opacity=".2"/><stop offset="100%" stop-color="#071280" stop-opacity="0"/></radialGradient><linearGradient id="c" x1="50%" x2="50%" y1="0%" y2="100%"><stop offset="0%" stop-color="#FFF" stop-opacity="0"/><stop offset=".761%" stop-color="#A5ACC9" stop-opacity="0"/><stop offset="2.35%" stop-color="#4E5368" stop-opacity=".4"/><stop offset="3.969%" stop-color="#4E5368" stop-opacity=".4"/><stop offset="5.954%" stop-color="#4E5368" stop-opacity=".2"/><stop offset="8.721%" stop-color="#A5ACC9" stop-opacity="0"/><stop offset="91.824%" stop-color="#A5ACC9" stop-opacity="0"/><stop offset="93.952%" stop-color="#4E5368" stop-opacity=".2"/><stop offset="96.648%" stop-color="#4E5368" stop-opacity=".4"/><stop offset="99.177%" stop-color="#A5ACC9" stop-opacity=".2"/><stop offset="100%" stop-color="#4E5368" stop-opacity=".4"/></linearGradient><linearGradient id="e" x1="0%" x2="100%" y1="50%" y2="50%"><stop offset="0%" stop-color="#292D3C"/><stop offset="8.299%" stop-color="#303544"/><stop offset="13.945%" stop-color="#4C5261"/><stop offset="26.873%" stop-color="#5D6576"/><stop offset="33.999%" stop-color="#4B5364"/><stop offset="53.427%" stop-color="#3A4354"/><stop offset="76.606%" stop-color="#2F3344"/><stop offset="86.748%" stop-color="#282A38"/><stop offset="92.929%" stop-color="#222530"/><stop offset="100%" stop-color="#898B90" stop-opacity="0"/></linearGradient><linearGradient id="w" x1="50%" x2="50%" y1="0%" y2="100%"><stop offset="0%" stop-color="#19283B"/><stop offset="1.599%" stop-color="#2D415D"/><stop offset="3.755%" stop-color="#51667D"/><stop offset="5.193%" stop-color="#3B5975"/><stop offset="7.43%" stop-color="#2E4D68"/><stop offset="10.029%" stop-color="#213E57"/><stop offset="11.766%" stop-color="#10314A"/><stop offset="90.061%" stop-color="#280D58"/><stop offset="92.768%" stop-color="#2E1751"/><stop offset="97.359%" stop-color="#231538"/><stop offset="100%" stop-color="#130E1F"/></linearGradient><circle id="u" cx="16" cy="16" r="16"/><circle id="y" cx="16" cy="16" r="12"/></defs><g fill="none" fill-rule="evenodd" transform="translate(45 55)"><g transform="translate(10 -1)"><mask id="b" fill="#fff"><use xlink:href="#a"/></mask><use xlink:href="#a" fill="#D8D8D8"/><g stroke-linejoin="square" mask="url(#b)"><path fill="#020300" stroke="#2A2A2A" stroke-width="2" d="M292.335716,2 L1117.66428,2 C1212.77359,2 1247.27658,11.8675069 1282.05089,30.4650125 C1316.74812,49.0212931 1343.97871,76.2518806 1362.53499,110.949109 C1381.13249,145.723421 1391,180.226408 1391,275.335716 L1391,2667.66428 C1391,2762.77359 1381.13249,2797.27658 1362.53499,2832.05089 C1343.97871,2866.74812 1316.74812,2893.97871 1282.05089,2912.53499 C1247.27658,2931.13249 1212.77359,2941 1117.66428,2941 L292.335716,2941 C197.226408,2941 162.723421,2931.13249 127.949109,2912.53499 C93.2518806,2893.97871 66.0212931,2866.74812 47.4650125,2832.05089 C28.8675069,2797.27658 19,2762.77359 19,2667.66428 L19,275.335716 C19,180.226408 28.8675069,145.723421 47.4650125,110.949109 C66.0212931,76.2518806 93.2518806,49.0212931 127.949109,30.4650125 C162.723421,11.8675069 197.226408,2 292.335716,2 Z"/><path stroke="#353535" d="M292.335716,1.5 L1117.66428,1.5 C1212.91519,1.5 1247.4625,11.3999236 1282.28669,30.0241059 C1317.07234,48.6276756 1344.37232,75.9276581 1362.97589,110.713309 C1381.60008,145.537502 1391.5,180.08481 1391.5,275.335716 L1391.5,2667.66428 C1391.5,2762.91519 1381.60008,2797.4625 1362.97589,2832.28669 C1344.37232,2867.07234 1317.07234,2894.37232 1282.28669,2912.97589 C1247.4625,2931.60008 1212.91519,2941.5 1117.66428,2941.5 L292.335716,2941.5 C197.08481,2941.5 162.537502,2931.60008 127.713309,2912.97589 C92.9276581,2894.37232 65.6276756,2867.07234 47.0241059,2832.28669 C28.3999236,2797.4625 18.5,2762.91519 18.5,2667.66428 L18.5,275.335716 C18.5,180.08481 28.3999236,145.537502 47.0241059,110.713309 C65.6276756,75.9276581 92.9276581,48.6276756 127.713309,30.0241059 C162.537502,11.3999236 197.08481,1.5 292.335716,1.5 Z"/></g><g stroke-linejoin="square" mask="url(#b)"><path fill="#000" stroke="#1E1D1D" stroke-width="5" d="M483.5,32.5 L941.581299,32.5 C949.109195,27.3715977 954.077112,24.5 956.5625,24.5 L1112.1004,24.5 C1207.67643,24.5 1242.36974,34.3630822 1277.32034,53.054865 C1312.07822,71.6435852 1339.35641,98.9217765 1357.94513,133.679661 C1376.63692,168.630256 1386.5,203.323571 1386.5,298.899602 L1386.5,2661.1004 C1386.5,2756.67643 1376.63692,2791.36974 1357.94513,2826.32034 C1339.35641,2861.07822 1312.07822,2888.35641 1277.32034,2906.94513 C1242.36974,2925.63692 1207.67643,2935.5 1112.1004,2935.5 L297.899602,2935.5 C202.323571,2935.5 167.630256,2925.63692 132.679661,2906.94513 C97.9217765,2888.35641 70.6435852,2861.07822 52.054865,2826.32034 C33.3630822,2791.36974 23.5,2756.67643 23.5,2661.1004 L23.5,298.899602 C23.5,203.323571 33.3630822,168.630256 52.054865,133.679661 C70.6435852,98.9217765 97.9217765,71.6435852 132.679661,53.054865 C167.630256,34.3630822 202.323571,24.5 297.899602,24.5 L453.4375,24.5 C455.922888,24.5 460.890805,27.3715977 468.418701,32.5 L479.5,32.5 L483.5,32.5 Z"/><path stroke="#1E1E1E" stroke-width="4" d="M483,32 L941.427375,32 C949.024412,26.8276581 954.049172,24 956.5625,24 L1112.1004,24 C1207.81803,24 1242.55566,33.8954989 1277.55614,52.6139584 C1312.40245,71.2499677 1339.75003,98.597554 1358.38604,133.443862 C1377.1045,168.444338 1387,203.181972 1387,298.899602 L1387,2661.1004 C1387,2756.81803 1377.1045,2791.55566 1358.38604,2826.55614 C1339.75003,2861.40245 1312.40245,2888.75003 1277.55614,2907.38604 C1242.55566,2926.1045 1207.81803,2936 1112.1004,2936 L297.899602,2936 C202.181972,2936 167.444338,2926.1045 132.443862,2907.38604 C97.597554,2888.75003 70.2499677,2861.40245 51.6139584,2826.55614 C32.8954989,2791.55566 23,2756.81803 23,2661.1004 L23,298.899602 C23,203.181972 32.8954989,168.444338 51.6139584,133.443862 C70.2499677,98.597554 97.597554,71.2499677 132.443862,52.6139584 C167.444338,33.8954989 202.181972,24 297.899602,24 L453.4375,24 C455.950828,24 460.975588,26.8276581 468.572625,32 L480,32 L483,32 Z"/><path stroke="#3A3A3A" stroke-width="3" d="M482.5,31.5 L941.273475,31.5 C948.939838,26.2852948 954.021235,23.5 956.5625,23.5 L1112.1004,23.5 C1207.95963,23.5 1242.74158,33.4279157 1277.79194,52.1730518 C1312.72667,70.8563503 1340.14365,98.2733315 1358.82695,133.208062 C1377.57208,168.258419 1387.5,203.040374 1387.5,298.899602 L1387.5,2661.1004 C1387.5,2756.95963 1377.57208,2791.74158 1358.82695,2826.79194 C1340.14365,2861.72667 1312.72667,2889.14365 1277.79194,2907.82695 C1242.74158,2926.57208 1207.95963,2936.5 1112.1004,2936.5 L297.899602,2936.5 C202.040374,2936.5 167.258419,2926.57208 132.208062,2907.82695 C97.2733315,2889.14365 69.8563503,2861.72667 51.1730518,2826.79194 C32.4279157,2791.74158 22.5,2756.95963 22.5,2661.1004 L22.5,298.899602 C22.5,203.040374 32.4279157,168.258419 51.1730518,133.208062 C69.8563503,98.2733315 97.2733315,70.8563503 132.208062,52.1730518 C167.258419,33.4279157 202.040374,23.5 297.899602,23.5 L453.4375,23.5 C455.978765,23.5 461.060162,26.2852948 468.726525,31.5 L480.5,31.5 L482.5,31.5 Z"/><path stroke="#424241" stroke-width="2" d="M941.119661,31 C948.855487,25.7444033 953.993307,23 956.5625,23 L1112.1004,23 C1208.10123,23 1242.9275,32.9603325 1278.02774,51.7321452 C1313.05089,70.4627329 1340.53727,97.949109 1359.26785,132.972263 C1378.03967,168.072501 1388,202.898775 1388,298.899602 L1388,2661.1004 C1388,2757.10123 1378.03967,2791.9275 1359.26785,2827.02774 C1340.53727,2862.05089 1313.05089,2889.53727 1278.02774,2908.26785 C1242.9275,2927.03967 1208.10123,2937 1112.1004,2937 L297.899602,2937 C201.898775,2937 167.072501,2927.03967 131.972263,2908.26785 C96.949109,2889.53727 69.4627329,2862.05089 50.7321452,2827.02774 C31.9603325,2791.9275 22,2757.10123 22,2661.1004 L22,298.899602 C22,202.898775 31.9603325,168.072501 50.7321452,132.972263 C69.4627329,97.949109 96.949109,70.4627329 131.972263,51.7321452 C167.072501,32.9603325 201.898775,23 297.899602,23 L453.4375,23 C456.006693,23 461.144513,25.7444033 468.880339,31 L481,31 L482,31 Z"/><path stroke="#393939" d="M297.899602,22.5 L453.4375,22.5 C456.034607,22.5 461.228629,25.2048892 469.034013,30.5 L481.5,30.5 L940.965987,30.5 C948.771371,25.2048892 953.965393,22.5 956.5625,22.5 L1112.1004,22.5 C1208.24282,22.5 1243.11342,32.4927492 1278.26354,51.2912386 C1313.37511,70.0691154 1340.93088,97.6248865 1359.70876,132.736463 C1378.50725,167.886582 1388.5,202.757176 1388.5,298.899602 L1388.5,2661.1004 C1388.5,2757.24282 1378.50725,2792.11342 1359.70876,2827.26354 C1340.93088,2862.37511 1313.37511,2889.93088 1278.26354,2908.70876 C1243.11342,2927.50725 1208.24282,2937.5 1112.1004,2937.5 L297.899602,2937.5 C201.757176,2937.5 166.886582,2927.50725 131.736463,2908.70876 C96.6248865,2889.93088 69.0691154,2862.37511 50.2912386,2827.26354 C31.4927492,2792.11342 21.5,2757.24282 21.5,2661.1004 L21.5,298.899602 C21.5,202.757176 31.4927492,167.886582 50.2912386,132.736463 C69.0691154,97.6248865 96.6248865,70.0691154 131.736463,51.2912386 C166.886582,32.4927492 201.757176,22.5 297.899602,22.5 Z"/></g><g mask="url(#b)"><path stroke="#232736" stroke-linejoin="square" stroke-width="18" d="M302.538454,10 L1107.46155,10 C1210.11198,10 1247.462,20.3699203 1285.0234,40.4579778 C1321.89105,60.1750097 1350.82499,89.1089526 1370.54202,125.976597 C1390.63008,163.537999 1401,200.888017 1401,303.538454 L1401,2656.46155 C1401,2759.11198 1390.63008,2796.462 1370.54202,2834.0234 C1350.82499,2870.89105 1321.89105,2899.82499 1285.0234,2919.54202 C1247.462,2939.63008 1210.11198,2950 1107.46155,2950 L302.538454,2950 C199.888017,2950 162.537999,2939.63008 124.976597,2919.54202 C88.1089526,2899.82499 59.1750097,2870.89105 39.4579778,2834.0234 C19.3699203,2796.462 9,2759.11198 9,2656.46155 L9,303.538454 C9,200.888017 19.3699203,163.537999 39.4579778,125.976597 C59.1750097,89.1089526 88.1089526,60.1750097 124.976597,40.4579778 C162.537999,20.3699203 199.888017,10 302.538454,10 Z"/><path stroke="#464A5E" stroke-linejoin="square" stroke-width="17" d="M1107.46155,9.5 C1210.25358,9.5 1247.64792,19.9023371 1285.2592,40.0170712 C1322.21527,59.7813923 1351.21861,88.7847301 1370.98293,125.740797 C1391.09766,163.35208 1401.5,200.746419 1401.5,303.538454 L1401.5,2656.46155 C1401.5,2759.25358 1391.09766,2796.64792 1370.98293,2834.2592 C1351.21861,2871.21527 1322.21527,2900.21861 1285.2592,2919.98293 C1247.64792,2940.09766 1210.25358,2950.5 1107.46155,2950.5 L302.538454,2950.5 C199.746419,2950.5 162.35208,2940.09766 124.740797,2919.98293 C87.7847301,2900.21861 58.7813923,2871.21527 39.0170712,2834.2592 C18.9023371,2796.64792 8.5,2759.25358 8.5,2656.46155 L8.5,303.538454 C8.5,200.746419 18.9023371,163.35208 39.0170712,125.740797 C58.7813923,88.7847301 87.7847301,59.7813923 124.740797,40.0170712 C162.35208,19.9023371 199.746419,9.5 302.538454,9.5 Z"/><path stroke="#73788C" stroke-linejoin="square" stroke-width="16" d="M302.538454,9 L1107.46155,9 C1210.39518,9 1247.83384,19.4347538 1285.495,39.5761646 C1322.53949,59.3877748 1351.61223,88.4605076 1371.42384,125.504998 C1391.56525,163.166162 1402,200.60482 1402,303.538454 L1402,2656.46155 C1402,2759.39518 1391.56525,2796.83384 1371.42384,2834.495 C1351.61223,2871.53949 1322.53949,2900.61223 1285.495,2920.42384 C1247.83384,2940.56525 1210.39518,2951 1107.46155,2951 L302.538454,2951 C199.60482,2951 162.166162,2940.56525 124.504998,2920.42384 C87.4605076,2900.61223 58.3877748,2871.53949 38.5761646,2834.495 C18.4347538,2796.83384 8,2759.39518 8,2656.46155 L8,303.538454 C8,200.60482 18.4347538,163.166162 38.5761646,125.504998 C58.3877748,88.4605076 87.4605076,59.3877748 124.504998,39.5761646 C162.166162,19.4347538 199.60482,9 302.538454,9 Z"/><path stroke="#AAAFC4" stroke-linejoin="square" stroke-width="15" d="M302.538454,8.5 L1107.46155,8.5 C1210.53678,8.5 1248.01976,18.9671706 1285.7308,39.135258 C1322.86371,58.9941574 1352.00584,88.1362851 1371.86474,125.269198 C1392.03283,162.980243 1402.5,200.463221 1402.5,303.538454 L1402.5,2656.46155 C1402.5,2759.53678 1392.03283,2797.01976 1371.86474,2834.7308 C1352.00584,2871.86371 1322.86371,2901.00584 1285.7308,2920.86474 C1248.01976,2941.03283 1210.53678,2951.5 1107.46155,2951.5 L302.538454,2951.5 C199.463221,2951.5 161.980243,2941.03283 124.269198,2920.86474 C87.1362851,2901.00584 57.9941574,2871.86371 38.135258,2834.7308 C17.9671706,2797.01976 7.5,2759.53678 7.5,2656.46155 L7.5,303.538454 C7.5,200.463221 17.9671706,162.980243 38.135258,125.269198 C57.9941574,88.1362851 87.1362851,58.9941574 124.269198,39.135258 C161.980243,18.9671706 199.463221,8.5 302.538454,8.5 Z"/><path stroke="#B8BFD6" stroke-linejoin="square" stroke-width="14" d="M1107.46155,8 C1210.67838,8 1248.20568,18.4995874 1285.9666,38.6943514 C1323.18794,58.60054 1352.39946,87.8120626 1372.30565,125.033399 C1392.50041,162.794325 1403,200.321623 1403,303.538454 L1403,2656.46155 C1403,2759.67838 1392.50041,2797.20568 1372.30565,2834.9666 C1352.39946,2872.18794 1323.18794,2901.39946 1285.9666,2921.30565 C1248.20568,2941.50041 1210.67838,2952 1107.46155,2952 L302.538454,2952 C199.321623,2952 161.794325,2941.50041 124.033399,2921.30565 C86.8120626,2901.39946 57.60054,2872.18794 37.6943514,2834.9666 C17.4995874,2797.20568 7,2759.67838 7,2656.46155 L7,303.538454 C7,200.321623 17.4995874,162.794325 37.6943514,125.033399 C57.60054,87.8120626 86.8120626,58.60054 124.033399,38.6943514 C161.794325,18.4995874 199.321623,8 302.538454,8 Z"/><path stroke="#A9B2C8" stroke-linejoin="square" stroke-width="13" d="M302.538454,7.5 L1107.46155,7.5 C1210.81998,7.5 1248.39159,18.0320041 1286.2024,38.2534448 C1323.51216,58.2069225 1352.79308,87.4878401 1372.74656,124.7976 C1392.968,162.608406 1403.5,200.180024 1403.5,303.538454 L1403.5,2656.46155 C1403.5,2759.81998 1392.968,2797.39159 1372.74656,2835.2024 C1352.79308,2872.51216 1323.51216,2901.79308 1286.2024,2921.74656 C1248.39159,2941.968 1210.81998,2952.5 1107.46155,2952.5 L302.538454,2952.5 C199.180024,2952.5 161.608406,2941.968 123.7976,2921.74656 C86.4878401,2901.79308 57.2069225,2872.51216 37.2534448,2835.2024 C17.0320041,2797.39159 6.5,2759.81998 6.5,2656.46155 L6.5,303.538454 C6.5,200.180024 17.0320041,162.608406 37.2534448,124.7976 C57.2069225,87.4878401 86.4878401,58.2069225 123.7976,38.2534448 C161.608406,18.0320041 199.180024,7.5 302.538454,7.5 Z"/><path stroke="#969FB6" stroke-linejoin="square" stroke-width="12" d="M302.538454,7 L1107.46155,7 C1210.96157,7 1248.57751,17.5644209 1286.4382,37.8125382 C1323.83638,57.8133051 1353.18669,87.1636176 1373.18746,124.5618 C1393.43558,162.422488 1404,200.038426 1404,303.538454 L1404,2656.46155 C1404,2759.96157 1393.43558,2797.57751 1373.18746,2835.4382 C1353.18669,2872.83638 1323.83638,2902.18669 1286.4382,2922.18746 C1248.57751,2942.43558 1210.96157,2953 1107.46155,2953 L302.538454,2953 C199.038426,2953 161.422488,2942.43558 123.5618,2922.18746 C86.1636176,2902.18669 56.8133051,2872.83638 36.8125382,2835.4382 C16.5644209,2797.57751 6,2759.96157 6,2656.46155 L6,303.538454 C6,200.038426 16.5644209,162.422488 36.8125382,124.5618 C56.8133051,87.1636176 86.1636176,57.8133051 123.5618,37.8125382 C161.422488,17.5644209 199.038426,7 302.538454,7 Z"/><path stroke="#7E889E" stroke-linejoin="square" stroke-width="11" d="M1107.46155,6.5 C1211.10317,6.5 1248.76343,17.0968377 1286.674,37.3716316 C1324.1606,57.4196877 1353.58031,86.8393951 1373.62837,124.326001 C1393.90316,162.236569 1404.5,199.896827 1404.5,303.538454 L1404.5,2656.46155 C1404.5,2760.10317 1393.90316,2797.76343 1373.62837,2835.674 C1353.58031,2873.1606 1324.1606,2902.58031 1286.674,2922.62837 C1248.76343,2942.90316 1211.10317,2953.5 1107.46155,2953.5 L302.538454,2953.5 C198.896827,2953.5 161.236569,2942.90316 123.326001,2922.62837 C85.8393951,2902.58031 56.4196877,2873.1606 36.3716316,2835.674 C16.0968377,2797.76343 5.5,2760.10317 5.5,2656.46155 L5.5,303.538454 C5.5,199.896827 16.0968377,162.236569 36.3716316,124.326001 C56.4196877,86.8393951 85.8393951,57.4196877 123.326001,37.3716316 C161.236569,17.0968377 198.896827,6.5 302.538454,6.5 Z"/><path stroke="#727D92" stroke-linejoin="square" stroke-width="10" d="M302.538454,6 L1107.46155,6 C1211.24477,6 1248.94935,16.6292544 1286.9098,36.930725 C1324.48483,57.0260703 1353.97393,86.5151726 1374.06927,124.090201 C1394.37075,162.050651 1405,199.755228 1405,303.538454 L1405,2656.46155 C1405,2760.24477 1394.37075,2797.94935 1374.06927,2835.9098 C1353.97393,2873.48483 1324.48483,2902.97393 1286.9098,2923.06927 C1248.94935,2943.37075 1211.24477,2954 1107.46155,2954 L302.538454,2954 C198.755228,2954 161.050651,2943.37075 123.090201,2923.06927 C85.5151726,2902.97393 56.0260703,2873.48483 35.930725,2835.9098 C15.6292544,2797.94935 5,2760.24477 5,2656.46155 L5,303.538454 C5,199.755228 15.6292544,162.050651 35.930725,124.090201 C56.0260703,86.5151726 85.5151726,57.0260703 123.090201,36.930725 C161.050651,16.6292544 198.755228,6 302.538454,6 Z"/><path stroke="#626D82" stroke-linejoin="square" stroke-width="9" d="M302.538454,5.5 L1107.46155,5.5 C1211.38637,5.5 1249.13527,16.1616712 1287.1456,36.4898184 C1324.80905,56.6324528 1354.36755,86.1909501 1374.51018,123.854402 C1394.83833,161.864732 1405.5,199.61363 1405.5,303.538454 L1405.5,2656.46155 C1405.5,2760.38637 1394.83833,2798.13527 1374.51018,2836.1456 C1354.36755,2873.80905 1324.80905,2903.36755 1287.1456,2923.51018 C1249.13527,2943.83833 1211.38637,2954.5 1107.46155,2954.5 L302.538454,2954.5 C198.61363,2954.5 160.864732,2943.83833 122.854402,2923.51018 C85.1909501,2903.36755 55.6324528,2873.80905 35.4898184,2836.1456 C15.1616712,2798.13527 4.5,2760.38637 4.5,2656.46155 L4.5,303.538454 C4.5,199.61363 15.1616712,161.864732 35.4898184,123.854402 C55.6324528,86.1909501 85.1909501,56.6324528 122.854402,36.4898184 C160.864732,16.1616712 198.61363,5.5 302.538454,5.5 Z"/><path stroke="#5D687C" stroke-linejoin="square" stroke-width="8" d="M1107.46155,5 C1211.52797,5 1249.32119,15.694088 1287.3814,36.0489118 C1325.13327,56.2388354 1354.76116,85.8667277 1374.95109,123.618602 C1395.30591,161.678814 1406,199.472031 1406,303.538454 L1406,2656.46155 C1406,2760.52797 1395.30591,2798.32119 1374.95109,2836.3814 C1354.76116,2874.13327 1325.13327,2903.76116 1287.3814,2923.95109 C1249.32119,2944.30591 1211.52797,2955 1107.46155,2955 L302.538454,2955 C198.472031,2955 160.678814,2944.30591 122.618602,2923.95109 C84.8667277,2903.76116 55.2388354,2874.13327 35.0489118,2836.3814 C14.694088,2798.32119 4,2760.52797 4,2656.46155 L4,303.538454 C4,199.472031 14.694088,161.678814 35.0489118,123.618602 C55.2388354,85.8667277 84.8667277,56.2388354 122.618602,36.0489118 C160.678814,15.694088 198.472031,5 302.538454,5 Z"/><path stroke="#545C70" stroke-linejoin="square" stroke-width="7" d="M302.538454,4.5 L1107.46155,4.5 C1211.66957,4.5 1249.5071,15.2265047 1287.6172,35.6080052 C1325.45749,55.845218 1355.15478,85.5425052 1375.39199,123.382803 C1395.7735,161.492895 1406.5,199.330433 1406.5,303.538454 L1406.5,2656.46155 C1406.5,2760.66957 1395.7735,2798.5071 1375.39199,2836.6172 C1355.15478,2874.45749 1325.45749,2904.15478 1287.6172,2924.39199 C1249.5071,2944.7735 1211.66957,2955.5 1107.46155,2955.5 L302.538454,2955.5 C198.330433,2955.5 160.492895,2944.7735 122.382803,2924.39199 C84.5425052,2904.15478 54.845218,2874.45749 34.6080052,2836.6172 C14.2265047,2798.5071 3.5,2760.66957 3.5,2656.46155 L3.5,303.538454 C3.5,199.330433 14.2265047,161.492895 34.6080052,123.382803 C54.845218,85.5425052 84.5425052,55.845218 122.382803,35.6080052 C160.492895,15.2265047 198.330433,4.5 302.538454,4.5 Z"/><path stroke="#4D5568" stroke-linejoin="square" stroke-width="6" d="M302.538454,4 L1107.46155,4 C1211.81117,4 1249.69302,14.7589215 1287.853,35.1670986 C1325.78172,55.4516005 1355.5484,85.2182827 1375.8329,123.147004 C1396.24108,161.306977 1407,199.188834 1407,303.538454 L1407,2656.46155 C1407,2760.81117 1396.24108,2798.69302 1375.8329,2836.853 C1355.5484,2874.78172 1325.78172,2904.5484 1287.853,2924.8329 C1249.69302,2945.24108 1211.81117,2956 1107.46155,2956 L302.538454,2956 C198.188834,2956 160.306977,2945.24108 122.147004,2924.8329 C84.2182827,2904.5484 54.4516005,2874.78172 34.1670986,2836.853 C13.7589215,2798.69302 3,2760.81117 3,2656.46155 L3,303.538454 C3,199.188834 13.7589215,161.306977 34.1670986,123.147004 C54.4516005,85.2182827 84.2182827,55.4516005 122.147004,35.1670986 C160.306977,14.7589215 198.188834,4 302.538454,4 Z"/><path stroke="#454C5E" stroke-linejoin="square" stroke-width="5" d="M302.538454,3.5 L1107.46155,3.5 C1211.95276,3.5 1249.87894,14.2913383 1288.0888,34.726192 C1326.10594,55.0579831 1355.94202,84.8940602 1376.27381,122.911204 C1396.70866,161.121059 1407.5,199.047235 1407.5,303.538454 L1407.5,2656.46155 C1407.5,2760.95276 1396.70866,2798.87894 1376.27381,2837.0888 C1355.94202,2875.10594 1326.10594,2904.94202 1288.0888,2925.27381 C1249.87894,2945.70866 1211.95276,2956.5 1107.46155,2956.5 L302.538454,2956.5 C198.047235,2956.5 160.121059,2945.70866 121.911204,2925.27381 C83.8940602,2904.94202 54.0579831,2875.10594 33.726192,2837.0888 C13.2913383,2798.87894 2.5,2760.95276 2.5,2656.46155 L2.5,303.538454 C2.5,199.047235 13.2913383,161.121059 33.726192,122.911204 C54.0579831,84.8940602 83.8940602,55.0579831 121.911204,34.726192 C160.121059,14.2913383 198.047235,3.5 302.538454,3.5 Z"/><path stroke="#393F50" stroke-linejoin="square" stroke-width="4" d="M302.538454,3 L1107.46155,3 C1212.09436,3 1250.06486,13.823755 1288.3246,34.2852854 C1326.43016,54.6643657 1356.33563,84.5698377 1376.71471,122.675405 C1397.17624,160.93514 1408,198.905637 1408,303.538454 L1408,2656.46155 C1408,2761.09436 1397.17624,2799.06486 1376.71471,2837.3246 C1356.33563,2875.43016 1326.43016,2905.33563 1288.3246,2925.71471 C1250.06486,2946.17624 1212.09436,2957 1107.46155,2957 L302.538454,2957 C197.905637,2957 159.93514,2946.17624 121.675405,2925.71471 C83.5698377,2905.33563 53.6643657,2875.43016 33.2852854,2837.3246 C12.823755,2799.06486 2,2761.09436 2,2656.46155 L2,303.538454 C2,198.905637 12.823755,160.93514 33.2852854,122.675405 C53.6643657,84.5698377 83.5698377,54.6643657 121.675405,34.2852854 C159.93514,13.823755 197.905637,3 302.538454,3 Z"/><path stroke="#353A4A" stroke-linejoin="square" stroke-width="3" d="M302.538454,2.5 L1107.46155,2.5 C1212.23596,2.5 1250.25078,13.3561718 1288.56039,33.8443788 C1326.75438,54.2707483 1356.72925,84.2456152 1377.15562,122.439605 C1397.64383,160.749222 1408.5,198.764038 1408.5,303.538454 L1408.5,2656.46155 C1408.5,2761.23596 1397.64383,2799.25078 1377.15562,2837.56039 C1356.72925,2875.75438 1326.75438,2905.72925 1288.56039,2926.15562 C1250.25078,2946.64383 1212.23596,2957.5 1107.46155,2957.5 L302.538454,2957.5 C197.764038,2957.5 159.749222,2946.64383 121.439605,2926.15562 C83.2456152,2905.72925 53.2707483,2875.75438 32.8443788,2837.56039 C12.3561718,2799.25078 1.5,2761.23596 1.5,2656.46155 L1.5,303.538454 C1.5,198.764038 12.3561718,160.749222 32.8443788,122.439605 C53.2707483,84.2456152 83.2456152,54.2707483 121.439605,33.8443788 C159.749222,13.3561718 197.764038,2.5 302.538454,2.5 Z"/><path stroke="#313747" stroke-linejoin="square" stroke-width="2.5" d="M302.538454,2.25 L1107.46155,2.25 C1212.30676,2.25 1250.34374,13.1223802 1288.67829,33.6239255 C1326.9165,54.0739395 1356.92606,84.083504 1377.37607,122.321706 C1397.87762,160.656262 1408.75,198.693239 1408.75,303.538454 L1408.75,2656.46155 C1408.75,2761.30676 1397.87762,2799.34374 1377.37607,2837.67829 C1356.92606,2875.9165 1326.9165,2905.92606 1288.67829,2926.37607 C1250.34374,2946.87762 1212.30676,2957.75 1107.46155,2957.75 L302.538454,2957.75 C197.693239,2957.75 159.656262,2946.87762 121.321706,2926.37607 C83.083504,2905.92606 53.0739395,2875.9165 32.6239255,2837.67829 C12.1223802,2799.34374 1.25,2761.30676 1.25,2656.46155 L1.25,303.538454 C1.25,198.693239 12.1223802,160.656262 32.6239255,122.321706 C53.0739395,84.083504 83.083504,54.0739395 121.321706,33.6239255 C159.656262,13.1223802 197.693239,2.25 302.538454,2.25 Z"/><path stroke="#282E3A" stroke-linejoin="square" stroke-width="2" d="M302.538454,2 L1107.46155,2 C1212.37756,2 1250.4367,12.8885886 1288.79619,33.4034722 C1327.07861,53.8771308 1357.12287,83.9213927 1377.59653,122.203806 C1398.11141,160.563303 1409,198.62244 1409,303.538454 L1409,2656.46155 C1409,2761.37756 1398.11141,2799.4367 1377.59653,2837.79619 C1357.12287,2876.07861 1327.07861,2906.12287 1288.79619,2926.59653 C1250.4367,2947.11141 1212.37756,2958 1107.46155,2958 L302.538454,2958 C197.62244,2958 159.563303,2947.11141 121.203806,2926.59653 C82.9213927,2906.12287 52.8771308,2876.07861 32.4034722,2837.79619 C11.8885886,2799.4367 1,2761.37756 1,2656.46155 L1,303.538454 C1,198.62244 11.8885886,160.563303 32.4034722,122.203806 C52.8771308,83.9213927 82.9213927,53.8771308 121.203806,33.4034722 C159.563303,12.8885886 197.62244,2 302.538454,2 Z"/><path stroke="#262B38" stroke-linejoin="square" stroke-width="1.5" d="M302.538454,1.75 L1107.46155,1.75 C1212.44836,1.75 1250.52966,12.654797 1288.91409,33.1830189 C1327.24072,53.6803221 1357.31968,83.7592815 1377.81698,122.085906 C1398.3452,160.470344 1409.25,198.55164 1409.25,303.538454 L1409.25,2656.46155 C1409.25,2761.44836 1398.3452,2799.52966 1377.81698,2837.91409 C1357.31968,2876.24072 1327.24072,2906.31968 1288.91409,2926.81698 C1250.52966,2947.3452 1212.44836,2958.25 1107.46155,2958.25 L302.538454,2958.25 C197.55164,2958.25 159.470344,2947.3452 121.085906,2926.81698 C82.7592815,2906.31968 52.6803221,2876.24072 32.1830189,2837.91409 C11.654797,2799.52966 0.75,2761.44836 0.75,2656.46155 L0.75,303.538454 C0.75,198.55164 11.654797,160.470344 32.1830189,122.085906 C52.6803221,83.7592815 82.7592815,53.6803221 121.085906,33.1830189 C159.470344,12.654797 197.55164,1.75 302.538454,1.75 Z"/><path stroke="#9B9EA3" stroke-opacity=".1" d="M302.538454,0.5 L1107.46155,0.5 C1212.80236,0.5 1250.99445,11.4858389 1289.50359,32.0807524 C1328.05127,52.6962786 1358.30372,82.9487252 1378.91925,121.496408 C1399.51416,160.005548 1410.5,198.197644 1410.5,303.538454 L1410.5,2656.46155 C1410.5,2761.80236 1399.51416,2799.99445 1378.91925,2838.50359 C1358.30372,2877.05127 1328.05127,2907.30372 1289.50359,2927.91925 C1250.99445,2948.51416 1212.80236,2959.5 1107.46155,2959.5 L302.538454,2959.5 C197.197644,2959.5 159.005548,2948.51416 120.496408,2927.91925 C81.9487252,2907.30372 51.6962786,2877.05127 31.0807524,2838.50359 C10.4858389,2799.99445 -0.5,2761.80236 -0.5,2656.46155 L-0.5,303.538454 C-0.5,198.197644 10.4858389,160.005548 31.0807524,121.496408 C51.6962786,82.9487252 81.9487252,52.6962786 120.496408,32.0807524 C159.005548,11.4858389 197.197644,0.5 302.538454,0.5 Z"/><path stroke="#8F9298" stroke-width=".5" d="M302.538454,0.75 L1107.46155,0.75 C1212.73156,0.75 1250.90149,11.7196305 1289.38569,32.3012057 C1327.88916,52.8930873 1358.10691,83.1108365 1378.69879,121.614307 C1399.28037,160.098507 1410.25,198.268443 1410.25,303.538454 L1410.25,2656.46155 C1410.25,2761.73156 1399.28037,2799.90149 1378.69879,2838.38569 C1358.10691,2876.88916 1327.88916,2907.10691 1289.38569,2927.69879 C1250.90149,2948.28037 1212.73156,2959.25 1107.46155,2959.25 L302.538454,2959.25 C197.268443,2959.25 159.098507,2948.28037 120.614307,2927.69879 C82.1108365,2907.10691 51.8930873,2876.88916 31.3012057,2838.38569 C10.7196305,2799.90149 -0.25,2761.73156 -0.25,2656.46155 L-0.25,303.538454 C-0.25,198.268443 10.7196305,160.098507 31.3012057,121.614307 C51.8930873,83.1108365 82.1108365,52.8930873 120.614307,32.3012057 C159.098507,11.7196305 197.268443,0.75 302.538454,0.75 Z"/><path stroke="#5B5F68" stroke-linejoin="square" d="M302.538454,1.5 L1107.46155,1.5 C1212.51916,1.5 1250.62262,12.4210053 1289.03199,32.9625656 C1327.40283,53.4835134 1357.51649,83.5971702 1378.03743,121.968006 C1398.57899,160.377385 1409.5,198.480841 1409.5,303.538454 L1409.5,2656.46155 C1409.5,2761.51916 1398.57899,2799.62262 1378.03743,2838.03199 C1357.51649,2876.40283 1327.40283,2906.51649 1289.03199,2927.03743 C1250.62262,2947.57899 1212.51916,2958.5 1107.46155,2958.5 L302.538454,2958.5 C197.480841,2958.5 159.377385,2947.57899 120.968006,2927.03743 C82.5971702,2906.51649 52.4835134,2876.40283 31.9625656,2838.03199 C11.4210053,2799.62262 0.5,2761.51916 0.5,2656.46155 L0.5,303.538454 C0.5,198.480841 11.4210053,160.377385 31.9625656,121.968006 C52.4835134,83.5971702 82.5971702,53.4835134 120.968006,32.9625656 C159.377385,12.4210053 197.480841,1.5 302.538454,1.5 Z"/><path stroke="url(#c)" stroke-linejoin="square" stroke-width="14" d="M1107.46155,8 C1210.67838,8 1248.20568,18.4995874 1285.9666,38.6943514 C1323.18794,58.60054 1352.39946,87.8120626 1372.30565,125.033399 C1392.50041,162.794325 1403,200.321623 1403,303.538454 L1403,2656.46155 C1403,2759.67838 1392.50041,2797.20568 1372.30565,2834.9666 C1352.39946,2872.18794 1323.18794,2901.39946 1285.9666,2921.30565 C1248.20568,2941.50041 1210.67838,2952 1107.46155,2952 L302.538454,2952 C199.321623,2952 161.794325,2941.50041 124.033399,2921.30565 C86.8120626,2901.39946 57.60054,2872.18794 37.6943514,2834.9666 C17.4995874,2797.20568 7,2759.67838 7,2656.46155 L7,303.538454 C7,200.321623 17.4995874,162.794325 37.6943514,125.033399 C57.60054,87.8120626 86.8120626,58.60054 124.033399,38.6943514 C161.794325,18.4995874 199.321623,8 302.538454,8 Z"/></g><g mask="url(#b)"><use xlink:href="#d" fill="url(#e)"/><use xlink:href="#d" fill="#000" filter="url(#f)"/></g><g mask="url(#b)" transform="matrix(-1 0 0 1 20 0)"><use xlink:href="#g" fill="url(#e)"/><use xlink:href="#g" fill="#000" filter="url(#h)"/></g><g mask="url(#b)" transform="matrix(-1 0 0 1 20 0)"><use xlink:href="#i" fill="url(#e)"/><use xlink:href="#i" fill="#000" filter="url(#j)"/></g><g mask="url(#b)"><use xlink:href="#k" fill="url(#e)"/><use xlink:href="#k" fill="#000" filter="url(#l)"/></g></g><g transform="matrix(-1 0 0 1 10 0)"><use xlink:href="#m" fill="#B6B6B6"/><use xlink:href="#m" fill="#000" filter="url(#n)"/></g><g transform="matrix(-1 0 0 1 10 0)"><use xlink:href="#o" fill="#B6B6B6"/><use xlink:href="#o" fill="#000" filter="url(#p)"/></g><g transform="matrix(-1 0 0 1 10 0)"><use xlink:href="#q" fill="#B6B6B6"/><use xlink:href="#q" fill="#000" filter="url(#r)"/></g><use xlink:href="#s" fill="#B6B6B6"/><use xlink:href="#s" fill="#000" filter="url(#t)"/><g transform="translate(525 87)"><path fill="#000" d="M56,0 L324,0 C354.927946,-7.10542736e-15 380,25.072054 380,56 C380,86.927946 354.927946,112 324,112 L56,112 C25.072054,112 0,86.927946 0,56 C-2.13162821e-14,25.072054 25.072054,7.10542736e-15 56,0 Z"/><path fill="#000" stroke="#000" stroke-width="25" d="M184 14.5C195.459909 14.5 205.834909 19.1450457 213.344931 26.6550686 220.854954 34.1650914 225.5 44.5400914 225.5 56 225.5 67.4599086 220.854954 77.8349086 213.344931 85.3449314 205.834909 92.8549543 195.459909 97.5 184 97.5L56 97.5C44.5400914 97.5 34.1650914 92.8549543 26.6550686 85.3449314 19.1450457 77.8349086 14.5 67.4599086 14.5 56 14.5 44.5400914 19.1450457 34.1650914 26.6550686 26.6550686 34.1650914 19.1450457 44.5400914 14.5 56 14.5ZM324 14.5C335.459909 14.5 345.834909 19.1450457 353.344931 26.6550686 360.854954 34.1650914 365.5 44.5400914 365.5 56 365.5 67.4599086 360.854954 77.8349086 353.344931 85.3449314 345.834909 92.8549543 335.459909 97.5 324 97.5 312.540091 97.5 302.165091 92.8549543 294.655069 85.3449314 287.145046 77.8349086 282.5 67.4599086 282.5 56 282.5 44.5400914 287.145046 34.1650914 294.655069 26.6550686 302.165091 19.1450457 312.540091 14.5 324 14.5Z"/><g transform="translate(308 40)"><use xlink:href="#u" fill="#000" filter="url(#v)"/><use xlink:href="#u" fill="#050614"/><use xlink:href="#u" fill="url(#w)"/><use xlink:href="#u" fill="#000" filter="url(#x)"/><use xlink:href="#y" fill="url(#z)"/><use xlink:href="#y" fill="url(#A)"/><use xlink:href="#y" fill="url(#B)"/><use xlink:href="#y" fill="#000" filter="url(#C)"/></g></g></g></svg>